<svg id="Layer_1" data-name="Layer 1" xmlns="http://www.w3.org/2000/svg" viewBox="0 0 199.83 123.21"><defs><style>.cls-1{fill:#0080ad;}</style></defs><title>wagon.svg</title><path id="path3" class="cls-1" d="M130.1,0c-.1,0-.19.08-.19.12s-.11.08-.25.08-.25,0-.25.08-.05.08-.12.08a.2.2,0,0,0-.17.1c0,.08-.06.08-.1,0a.19.19,0,0,0-.37.1c0,.21-.13.29-.19.11s-.34,0-.29.18-.6.92-.89.92-.31.2-.11.27,0,.09-.08.2a1,1,0,0,0-.24.47c0,.17-.09.31-.13.31s-.07.06-.07.13,0,.13-.08.13-.08.11-.08.25,0,.25-.08.25-.08.13-.08.29a.52.52,0,0,1-.08.34,3,3,0,0,0-.08,1,2.25,2.25,0,0,0,.08.91s.08.13.08.29,0,.29.08.29.08.11.08.25,0,.25.08.25.08.07.08.17,0,.17.07.17.1.13.13.29.1.3.15.32.06.08,0,.2.21.61.54.61c.12,0,.21,0,.21.08s.07.1.17.13a.24.24,0,0,1,.17.25c0,.31.09.46.26.46s.16,0,.16-.08a.08.08,0,0,1,.08-.08s.08.11.08.25,0,.25.16.25a.22.22,0,0,1,.2.1c0,.08.07.08.2,0a.22.22,0,0,1,.35.2c0,.06.07.11.17.11s.17,0,.17-.08.11-.08.25-.08.25,0,.25.08.17.08.38.08.38,0,.38.08.26.08.63.08.63,0,.63-.08.15-.08.33-.08.33,0,.33-.08.12-.08.26-.08a3,3,0,0,0,1.22-.52.18.18,0,0,1,.15-.07.87.87,0,0,0,.38-.27c.16-.17.27-.23.29-.17s.27.11.27-.1,0-.21.08-.21.08-.06.08-.13a.43.43,0,0,1,.45-.37c.18,0,.21,0,.21-.25s0-.25.17-.25.24-.21.08-.27,0-.12,0-.28a1.24,1.24,0,0,0,.13-.48c0-.13,0-.23.08-.23s.08-.09.08-.21,0-.21.08-.21a3.49,3.49,0,0,0,.08-1.16,4.42,4.42,0,0,1,.08-1.21.15.15,0,0,0-.08-.29.15.15,0,0,1-.17-.17c0-.09,0-.17-.08-.17s-.08-.08-.08-.17,0-.17.08-.17.08-.06.08-.12,0-.12-.09-.12-.36-.25-.26-.36.1-.31-.15-.31-.25,0-.25-.15-.05-.19-.42-.44c-.09-.07-.1-.1,0-.13s.12-.27-.1-.49-.35-.26-.4-.1-.12,0-.28-.16a1.22,1.22,0,0,0-.51-.32c-.26-.06-.3-.11-.27-.4,0-.1,0-.15-.16-.15s-.17,0-.17.08-.31.1-.35,0A20,20,0,0,0,130.1,0m1.06,13.83s-.21.08-.46.08-.46,0-.46.07a1.41,1.41,0,0,1-.6.12,1.43,1.43,0,0,0-.63.14s-.14.09-.27.09-.24,0-.24.08-.09.08-.21.08-.21,0-.21.08-.07.08-.17.08-.17,0-.17-.08-.07-.08-.17-.08-.17.06-.17.13A.42.42,0,0,1,127,15c-.09,0-.17,0-.17.08s-.11.08-.25.08-.25,0-.25.08-.08.08-.17.08-.17,0-.17-.08-.32-.08-.37.13-.11.21-.3.21-.25,0-.25.08-.11.08-.24.08-.26,0-.28.1-.07.08-.21,0-.35-.13-.35,0a.43.43,0,0,1-.45.37c-.12,0-.21,0-.21.08s-.09.08-.21.08-.21,0-.21.08-.07.08-.17.08-.17,0-.17-.08-.3-.08-.38.1a.38.38,0,0,1-.31.21c-.13,0-.23.06-.23.1s-.11.08-.25.08-.25,0-.25.08-.07.08-.17.08-.17,0-.17-.08-.06-.08-.12-.08a.13.13,0,0,0-.12.13.43.43,0,0,1-.45.37c-.12,0-.21,0-.21.08s-.11.08-.25.08-.25,0-.25.08-.06.08-.12.08-.12,0-.12-.08-.07-.08-.17-.08-.17,0-.17.09-.23.33-.41.33a.29.29,0,0,0-.22.08.35.35,0,0,1-.26.08c-.11,0-.2,0-.2.08s-.07.08-.17.08-.17,0-.17-.08-.07-.08-.17-.08-.17.06-.17.13a.42.42,0,0,1-.41.37c-.1,0-.17,0-.17.08s-.11.08-.25.08S116,19,116,19s-.07.08-.17.08-.17,0-.17-.08-.06-.08-.12-.08-.12,0-.12.09-.23.33-.45.33-.21,0-.21.08-.09.08-.21.08-.21,0-.21.08-.08.08-.17.08-.17,0-.17-.08-.07-.08-.17-.08-.17.06-.17.13a.42.42,0,0,1-.41.37c-.09,0-.17,0-.17.08s-.11.08-.25.08-.25,0-.25.08-.08.08-.17.08-.17,0-.17-.08-.32-.08-.37.13-.11.21-.3.21-.25,0-.25.08-.11.08-.25.08-.25,0-.25.08-.09.08-.21.08-.21,0-.21.08-.07.08-.17.08-.17,0-.17.08-.11.08-.25.08-.25,0-.25-.08-.06-.08-.12-.08a.13.13,0,0,0-.12.13c0,.21-.19.34-.61.4-.22,0-.39.09-.39.14s-.39.1-.46,0-.29-.1-.29,0a.42.42,0,0,1-.41.37.29.29,0,0,0-.22.08.35.35,0,0,1-.26.08c-.11,0-.2,0-.2.08s-.07.08-.17.08-.17,0-.17-.08-.08-.08-.18-.08-.17,0-.13.17,0,.17-.07.17-.12,0-.12.08-.13.1-.29.13-.29.09-.29.13-.07.07-.15.07a.68.68,0,0,0-.35.27,3.27,3.27,0,0,1-.84.82s-.08.08-.08.17,0,.17-.08.17-.08.08-.08.17,0,.17-.08.17-.08.11-.08.24,0,.26-.1.28a5.83,5.83,0,0,0,0,2.24.47.47,0,0,1,.1.29c0,.11,0,.19.08.19s.08.07.08.16a.24.24,0,0,0,.1.21c.08,0,.08.06,0,.1s-.12.37.14.37.38.11.73.53a.61.61,0,0,1,.1.34.19.19,0,0,0,.37.11c0-.08.06-.08.1,0a.24.24,0,0,0,.2.1.2.2,0,0,1,.19.1c0,.08.37.1,1.35.1s1.33,0,1.35-.1.14-.1.28-.1.24,0,.24-.08.11-.08.25-.08.25,0,.25-.08.09-.08.21-.08.21,0,.21-.08.11-.08.25-.08.25,0,.25-.08.07-.08.17-.08.17,0,.17-.08.09-.08.21-.08.21,0,.21.08.07.08.17.08.23-.21.06-.27.07-.07.29-.1a1,1,0,0,0,.44-.14.35.35,0,0,1,.25-.07c.11,0,.2,0,.2-.08s.11-.08.25-.08.25,0,.25-.08.09-.08.21-.08.21,0,.21-.08.08-.08.17-.08.17,0,.17.08.07.08.17.08.17-.06.17-.13a.42.42,0,0,1,.12-.25c.14-.14.46-.16.46,0s.08.08.17.08a.14.14,0,0,0,.06-.28c-.06,0,.09-.07.33-.1s.44-.09.44-.13.09-.07.21-.07.21,0,.21-.08.11-.08.25-.08.25,0,.25-.08.08-.08.17-.08a.81.81,0,0,0,.34-.1c.14-.08.18-.08.21,0s.36.13.36,0a.42.42,0,0,1,.12-.25c.14-.14.55-.16.55,0s.06.08.13.08.17-.22,0-.28.09-.07.33-.1.44-.09.44-.13.09-.07.21-.07.21,0,.21-.08.08-.08.17-.08a.15.15,0,0,1,.17.16.24.24,0,0,0,.1.21c.08,0,.08.06,0,.1s-.11.28.15.28.25,0,.25.17,0,.17.08.17.08.07.08.16a.24.24,0,0,0,.1.21c.08,0,.08.06,0,.1s-.14.28,0,.28.08.08.08.17.06.17.21.17.21,0,.21.16a.24.24,0,0,0,.1.21c.08,0,.08.06,0,.1s-.13.28,0,.28a.87.87,0,0,1,.54.53.2.2,0,0,0,.1.17c.08,0,.08.06,0,.1s-.14.37,0,.37.08.06.08.13,0,.13.08.13.06.08,0,.17,0,.17.22.17.26,0,.26.25,0,.25.08.25.08.32.08.79,0,.79-.08.79-.08.13-.08.29,0,.29-.08.29-.08.11-.08.25,0,.25-.22.25-.21,0-.17.21,0,.21-.16.21-.21,0-.21.08-.07.08-.17.08a.15.15,0,0,0-.17.17c0,.16-.06.17-1,.17a2.66,2.66,0,0,1-1-.08,10.08,10.08,0,0,0-2-.08,10.16,10.16,0,0,1-2-.08,4.51,4.51,0,0,0-1.33-.08,4.49,4.49,0,0,1-1.33-.08,18.61,18.61,0,0,0-2.79-.08,18.61,18.61,0,0,0-2.79.08s-.19.08-.42.08-.42,0-.42.08-.13.08-.29.08-.29,0-.29.08-.11.08-.25.08-.25,0-.25.08-.07.08-.17.08-.17,0-.17.08a.09.09,0,0,1-.09.08.4.4,0,0,0-.21.12.39.39,0,0,1-.37.07c-.21,0-.25,0-.25.13a.42.42,0,0,1-.42.42c-.16,0-.18,0-.13.24a.34.34,0,0,1-.07.34.34.34,0,0,0-.12.22c0,.06,0,.12-.08.12s-.08.08-.08.17,0,.17-.08.17-.08.11-.08.25,0,.25-.08.25-.08.17-.08.38,0,.38-.08.38-.08,4.61-.08,13.67,0,13.67.08,13.67.08.11.08.25,0,.25-.08.25-.08.06-.08.13a.13.13,0,0,0,.13.13c.18,0,.44.27.31.31s-.12.35.09.35.36.16.66.46a1.94,1.94,0,0,0,.59.46c.07,0,.13,0,.13.08s.06.08.13.08.13,0,.13.08.11.08.25.08.25,0,.25.08a2.63,2.63,0,0,0,1,.08,3.48,3.48,0,0,1,1,.08c.08.13.29.1.29,0a.42.42,0,0,1,.12-.25c.14-.14.38-.16.38,0s.33.07.34-.19,0-.22,0-.17a.19.19,0,0,0,.36-.06c0-.1.06-.17.15-.17s.67-.5.73-.82c0-.15.09-.27.13-.27s.07-.06.07-.12,0-.12-.08-.12-.08-.07-.08-.17,0-.17.08-.17.08-.08.08-.17a.15.15,0,0,1,.17-.17.15.15,0,0,0,.17-.17c0-.09,0-.17-.08-.17a27.33,27.33,0,0,1-.08-3.42c0-3.63,0-3.67.38-3.3.14.14.16.46,0,.46s-.08.08-.08.17.06.17.13.17.35.2.41.65c0,.24.09.43.14.43s.08.11.08.25,0,.25.08.25.08.09.08.21,0,.21.08.21.08.11.08.25,0,.25.08.25.08.11.08.25,0,.25.08.25.08.09.08.21,0,.21.08.21.08.11.08.25,0,.25.07.25.1.21.13.46.09.46.13.46.08.11.08.25,0,.25.06.25.27.41.27.6,0,.15-.08.15-.08.07-.08.17.06.17.13.17a.42.42,0,0,1,.25.12c.14.14.16.46,0,.46s-.08.07-.08.17.06.17.13.17.35.2.41.65c0,.24.09.43.14.43s.08.11.08.25,0,.25.08.25.08.09.08.2a.35.35,0,0,0,.08.25.35.35,0,0,1,.08.25c0,.11,0,.2.08.2s.08.11.08.25,0,.25.08.25.08.09.08.21,0,.21.08.21.08.11.08.25,0,.25.07.25.1.21.13.46.09.46.13.46.1.31,0,.38-.1.21.06.27.52.61.27.61c0,0-.08.08-.08.17s.06.17.13.17a.43.43,0,0,1,.37.45c0,.12,0,.21.08.21s.08.09.08.21,0,.21.07.21.1.21.13.46.09.46.13.46.08.11.08.25,0,.25.08.25.08.11.08.25,0,.25.08.25.08.09.08.21,0,.21.08.21.08.11.08.25,0,.25.08.25.08.09.08.2a.35.35,0,0,0,.08.25.35.35,0,0,1,.08.25c0,.11,0,.2.07.2s.1.21.13.46.09.46.13.46.08.11.08.25,0,.25.08.25.08.07.08.17,0,.17.08.17.08.09.08.21,0,.21-.08.21-.08.07-.08.17.06.17.13.17a.42.42,0,0,1,.25.12c.14.14.16.55,0,.55s-.08.06-.08.13a.13.13,0,0,0,.13.13.42.42,0,0,1,.25.12c.14.14.16.38,0,.38s-.08.07-.08.17-.06.17-.5.17c-.28,0-.5,0-.5-.08a12.18,12.18,0,0,0-2.25-.08,12.22,12.22,0,0,1-2.25-.08A7.18,7.18,0,0,0,110.7,82,7.18,7.18,0,0,1,109,82a11.78,11.78,0,0,0-2.21-.08,11.74,11.74,0,0,1-2.21-.08,7.87,7.87,0,0,0-1.79-.08,7.9,7.9,0,0,1-1.79-.08s-.11-.08-.24-.08c-.35,0-.51-.08-.51-.26s0-.16-.08-.16-.08-.08-.08-.17,0-.17.08-.17.08-.07.08-.17-.06-.17-.13-.17a.45.45,0,0,1-.37-.33.09.09,0,0,0-.08-.09s-.08-.07-.08-.17,0-.17-.08-.17-.08-.07-.08-.17,0-.17.08-.17.08-.32-.12-.37-.21-.11-.21-.22,0-.16-.08-.16-.08-.11-.08-.25,0-.25-.08-.25-.08-.08-.08-.17,0-.17-.08-.17-.08-.06-.08-.12,0-.12-.08-.12-.08-.07-.08-.17,0-.17.08-.17.08-.07.08-.17-.06-.17-.13-.17a.45.45,0,0,1-.37-.33.09.09,0,0,1,.08-.09s.08-.07.08-.17,0-.17-.09-.17a.45.45,0,0,1-.33-.37c0-.07,0-.13.08-.13s.06-.27-.17-.35-.37-.4-.17-.4c0,0,.08-.08.08-.17s-.06-.17-.13-.17a.43.43,0,0,1-.37-.37c0-.07,0-.13-.08-.13s-.08-.09-.08-.21,0-.21-.07-.21-.1-.14-.13-.31c-.07-.38-.23-.77-.32-.77s-.06-.07-.06-.17,0-.17-.08-.17-.08-.07-.08-.17,0-.17.08-.17.06-.27-.17-.35-.25-.14-.25-.25,0-.16-.08-.16-.08-.08-.08-.17,0-.17-.07-.17-.1-.13-.13-.29-.09-.29-.13-.29-.08-.07-.08-.17,0-.17-.08-.17-.08-.08-.08-.17,0-.17-.08-.17-.08-.07-.08-.17,0-.17-.08-.17-.08-.05-.08-.12a.2.2,0,0,0-.1-.17c-.08,0-.08-.06,0-.1s.12-.37-.15-.37-.3-.09-.26-.56c0-.14,0-.19-.16-.19s-.51-.26-.35-.31S94,67,93.78,67s-.37-.16-.74-.54a2.45,2.45,0,0,0-.66-.54c-.09,0-.13-.08-.13-.25s-.18-.35-.29-.16-.19,0-.14-.18,0-.17-.22-.13-.26,0-.26-.15,0-.21-.17-.21-.17,0-.17.08a.08.08,0,0,1-.08.08s-.08-.11-.08-.25-.19-.35-.29-.15-.06.08-.1,0a.24.24,0,0,0-.21-.1c-.12,0-.16-.06-.16-.26s0-.25-.17-.22-.17,0-.17,0-.1-.07-.23-.05-.23,0-.2-.16a.18.18,0,0,0-.35-.08c0,.08-.06.08-.1,0a.24.24,0,0,0-.21-.1c-.09,0-.16,0-.16-.08s-.07-.08-.17-.08-.17-.06-.17-.25-.19-.35-.28-.15-.06.08-.1,0a.24.24,0,0,0-.21-.1c-.11,0-.16-.06-.16-.21a.19.19,0,0,0-.37-.1c0,.08-.06.08-.1,0a.2.2,0,0,0-.17-.1c-.06,0-.12,0-.12-.08s-.07-.08-.17-.08-.17,0-.17-.08-.08-.08-.17-.08S86,62.15,86,62s0-.25-.17-.25-.17,0-.17.08-.18,0-.4-.12a1.91,1.91,0,0,0-.54-.2c-.08,0-.15,0-.15-.08s-.06-.08-.12-.08-.12,0-.12-.08-.08-.08-.17-.08S84,61.09,84,61s-.07-.08-.17-.08-.17,0-.17-.08-.07-.08-.17-.08-.17,0-.17-.06a1.89,1.89,0,0,0-.54-.31c-.37-.17-.54-.29-.54-.4s-.06-.15-.17-.15-.17,0-.17.08a.09.09,0,0,1-.09.08.45.45,0,0,1-.33-.37c0-.08-.07-.13-.17-.13s-.17,0-.17.08-.07.08-.17.08-.17,0-.17-.06-.42-.27-.65-.27-.44-.17-.44-.31A2.24,2.24,0,0,0,79,59a2,2,0,0,1-.8-.1,23,23,0,0,0-3.85,0,3.52,3.52,0,0,1-1,.13,4.34,4.34,0,0,0-1,.13,1.05,1.05,0,0,1-.5.07c-.25,0-.45,0-.45.08s-.21.08-.46.08-.46,0-.46.08-.26.08-.62.08-.62,0-.62.08-.29.08-.71.08-.71,0-.71-.08a2.46,2.46,0,0,0-1-.08,2.45,2.45,0,0,1-1-.08A8.62,8.62,0,0,0,64,59.37a8.59,8.59,0,0,1-1.87-.08,32.82,32.82,0,0,0-3.75-.08,32.82,32.82,0,0,0-3.75.08,15,15,0,0,1-2.5.08,15,15,0,0,1-2.5-.08,2.66,2.66,0,0,0-1-.08,3.62,3.62,0,0,1-1-.07A4.17,4.17,0,0,0,46.52,59a3.88,3.88,0,0,1-1.09-.14s-.21-.08-.44-.08-.41,0-.41-.08-.13-.08-.29-.08-.29,0-.29-.08-.19-.08-.42-.08-.42,0-.42-.08-.09-.08-.21-.08-.21,0-.21-.08-.11-.08-.25-.08-.25,0-.25-.08-.08-.08-.17-.08a.78.78,0,0,1-.31-.08,1.69,1.69,0,0,0-.37-.13c-.16,0-.23-.1-.23-.21a.15.15,0,0,0-.17-.17c-.09,0-.17,0-.17.08s-.06.08-.12.08-.12,0-.12-.08-.08-.08-.17-.08-.17,0-.17-.08-.08-.08-.17-.08-.17-.06-.17-.25-.27-.37-.36-.15c0,.07-.06.08-.11,0a.54.54,0,0,0-.21-.14c-.09,0-.12-.11-.09-.22s0-.17-.13-.17-.18,0-.18.08a.08.08,0,0,1-.08.08s-.08-.11-.08-.25-.27-.37-.36-.15-.22-.09-.22-.32-.3-.5-.45-.37-.19.08-.57-.3-.39-.43-.39-.61a.22.22,0,0,0-.17-.22c-.09,0-.17-.1-.17-.16S36.24,54,36.1,54a.43.43,0,0,1-.35-.18,3.7,3.7,0,0,0-.32-.38c-.16-.17-.18-.22-.08-.28s0-.36-.3-.4-.73-.44-.56-.49.12-.38-.06-.33-.66-.39-.51-.48.09-.3-.12-.3-.56-.26-.39-.31.13-.38-.06-.33-.49-.22-.34-.31.09-.3-.13-.3-.56-.26-.39-.31a.17.17,0,0,0,.1-.16c0-.17-.23-.39-.36-.34A.29.29,0,0,1,32,49C31.9,49,31.9,49,32,49s.1-.08.1-.17-.06-.17-.17-.17-.5-.26-.35-.31.11-.35-.13-.36-.71-.33-.54-.39a.19.19,0,0,0-.07-.36c-.21,0-.5-.26-.35-.31s.09-.31-.19-.28-.59-.42-.48-.47a.18.18,0,0,0,.1-.16c0-.18-.23-.39-.37-.33s-.18,0-.27-.13-.12-.18,0-.21c.25-.09-.33-.77-.64-.77s-.92-.68-.77-.73.09-.3-.34-.69l-.5-.47c-.58-.63-.91-.94-1-.94s-.13,0-.13-.09c0-.23-.37-.42-.44-.23s-.65-.48-.65-.7a.55.55,0,0,0-.57-.44c-.21.07-.51-.22-.51-.48s-.28-.32-.36-.12-.39-.28-.39-.51,0-.19-.25-.15-.25,0-.25-.16-.28-.3-.36-.1-.29-.19-.25-.37-.24-.33-.29-.17-.17.1-.2-.13-.07-.22-.15-.2c-.31.08-.37.05-.35-.13s0-.19-.1-.19-.13,0-.13.08a.08.08,0,0,1-.08.08s-.08-.11-.08-.25-.26-.37-.37-.15-.06.08-.1,0a.24.24,0,0,0-.21-.1c-.12,0-.16-.06-.16-.25s-.19-.36-.28-.15-.06.08-.11,0a.44.44,0,0,0-.24-.13c-.12,0-.16-.09-.14-.22s0-.19-.15-.19-.17,0-.17-.08-.31-.1-.36,0,0,.08,0,0-.08-.1-.17-.1-.17,0-.17-.08-.08-.08-.17-.08-.17,0-.17-.08-.08-.08-.17-.08-.17,0-.17-.07-.07-.09-.16-.12-.15-.09-.12-.22,0-.18-.13-.18-.18,0-.18.08-.08.08-.17.08-.17,0-.17-.08-.11-.08-.25-.08-.25,0-.25-.08S15.46,35,15.2,35s-.46,0-.46-.08a5.94,5.94,0,0,0-1.54-.08,5.94,5.94,0,0,0-1.54.08,4,4,0,0,1-1.25.08A4,4,0,0,1,9.16,35s-.13-.08-.3-.08c-.32,0-.54-.15-.54-.37s0-.13-.08-.13-.1-.08-.14-.19A.55.55,0,0,0,8,33.94c-.07,0-.06-.08,0-.14s0-.34-.2-.34-.21,0-.21-.08a.08.08,0,0,1,.08-.08s.08-.08.08-.17S7.69,33,7.49,33s-.25,0-.25-.08a.08.08,0,0,1,.08-.08s.08-.06.08-.12-.08-.12-.25-.12-.25,0-.25-.08A.08.08,0,0,1,7,32.37s.08-.08.08-.17S7,32,6.87,32s-.21,0-.21-.08a.08.08,0,0,1,.08-.08s.08-.06.08-.12-.08-.12-.25-.12-.25,0-.25-.16a.24.24,0,0,0-.1-.21c-.08,0-.08-.06,0-.1s.12-.37-.15-.37-.25,0-.25-.08a.08.08,0,0,1,.08-.08S6,30.57,6,30.5s-.08-.12-.21-.12-.21,0-.21-.16a.22.22,0,0,0-.1-.2c-.08,0-.08-.06,0-.15s.12-.33-.15-.33-.25,0-.25-.16a.25.25,0,0,0-.17-.21A.25.25,0,0,1,4.74,29c0-.09,0-.16-.08-.16s-.08-.08-.08-.17,0-.17-.07-.17-.14-.17-.23-.37c-.16-.39-.62-.57-.62-.25,0,.07,0,.13.08.13s.08.19.08.42,0,.42.08.42.08.29.08.71,0,.71.08.71.08.24.08.54,0,.54.07.54a5.79,5.79,0,0,1,.13,1.27,7.06,7.06,0,0,0,.14,1.35,2.61,2.61,0,0,1,.08.81c0,.43,0,.73.08.73s.08.26.08.63,0,.63.08.63c.25,0,.09,1.5-.19,1.79l-.37.39c-.28.32-.73.66-.76.58-.09-.28-.77.34-.77.7,0,.11,0,.21-.08.21a3.27,3.27,0,0,0-.84.82.56.56,0,0,1-.44.27c-.15,0-.23,0-.23.13s0,.13.08.13.08.32.08.79,0,.79.08.79.08.17.08.38,0,.38.08.38.08.15.08.33,0,.33.08.33a1.43,1.43,0,0,1,.13.63A1.47,1.47,0,0,0,2,46a1.41,1.41,0,0,1,.07.63,1.43,1.43,0,0,1-.07.63,14.33,14.33,0,0,0-.13,2,14.67,14.67,0,0,1-.14,2,1.55,1.55,0,0,0-.08.65c0,.36,0,.62-.08.62s-.08.29-.08.71,0,.71-.08.71-.08.24-.08.54,0,.54-.08.54-.08.26-.08.63,0,.63-.08.63-.08.24-.08.54,0,.54-.08.54-.08.26-.08.63a1.37,1.37,0,0,1-.08.63,4.63,4.63,0,0,0-.14,1.17A4.85,4.85,0,0,1,.48,61s-.07.21-.07.46,0,.46-.08.46-.08.29-.08.7,0,.71-.09.73A13.73,13.73,0,0,0,.11,67c.1,0,.14.07.14.25s0,.25.17.25.17,0,.17.08.06.08.13.08.13,0,.13-.08.07-.08.17-.08.17,0,.17.07.16.09.35.12.37.09.38.14.21.09.44.09.41,0,.41.08.21.08.46.08.46,0,.46.08a18.89,18.89,0,0,0,2.82.08H9.37L9.43,68c0-.16.1-.3.16-.3l.23,0c.14,0,.23-.31.09-.31s-.09-.11-.09-.25,0-.25.08-.25.08-.09.08-.21,0-.21-.08-.21-.08-.22-.08-.5,0-.5-.08-.5-.08-.06-.08-.13,0-.13-.08-.13a5.59,5.59,0,0,1,0-1.93s.08-.08.08-.17,0-.17.07-.17.12-.13.18-.29.15-.29.18-.29.07-.11.07-.25,0-.25.08-.25.08-.08.08-.17,0-.17.07-.17.09-.07.12-.16.09-.15.22-.12.27-.27.07-.33.12-.32.31-.32.18-.3,0-.36-.08,0,0,0,.1-.08.1-.17.06-.17.25-.17.37-.27.15-.37-.08-.06,0-.1a.23.23,0,0,0,.1-.2.23.23,0,0,1,.13-.2A.24.24,0,0,0,12,58.7c0-.13.06-.17.22-.17a.55.55,0,0,0,.34-.12c.14-.14.16-.38,0-.38a.08.08,0,0,1-.08-.08s.11-.08.25-.08.36-.2.15-.27,0-.11.11-.25.24-.19.37-.12.16.06.19,0a.22.22,0,0,1,.2-.11.15.15,0,0,0,.16-.17c0-.15.06-.17.55-.17.31,0,.55,0,.55.08s.11.08.25.08.25,0,.25.08.06.08.13.08a.13.13,0,0,1,.13.13c0,.17.25.26.34.12s.12-.06.29.09l.43.39c.16.14.2.24.16.4a.34.34,0,0,0,.32.46c.25,0,.4.18.3.35s.1.41.4.41.23,0,.25.46c0,.22,0,.26.28.28s.41.18.19.18c0,0-.08.08-.08.17s.06.17.22.17.57.26.39.32-.13.38,0,.34.54.19.37.25-.12.36.15.36.25,0,.25.08a.08.08,0,0,1-.08.08s-.08.08-.08.17.06.17.22.17a.55.55,0,0,1,.34.13c.07.07.09.13,0,.13s-.09.08-.09.17.06.17.21.17.2,0,.16.25,0,.25.13.25.52.26.36.32-.11.27.15.27.25,0,.25.08a.08.08,0,0,1-.08.08s-.08.08-.08.17.06.17.24.17.36.14.29.41,0,.18.17.18.22,0,.22.08a.08.08,0,0,1-.08.08s-.08.08-.08.17.06.17.22.17.54.24.37.34,0,.37.11.31a.29.29,0,0,1,.23,0c.08.05.09.08,0,.08s-.11.08-.11.17.06.17.21.17.29.13.11.19,0,.32.19.32.51.26.35.32-.11.27.15.27.25,0,.25.08a.08.08,0,0,1-.08.08c-.13,0-.1.25,0,.39a.35.35,0,0,0,.27.1.16.16,0,0,1,.18.08c0,.06,0,.1-.05.1s-.09.06-.09.13.07.13.17.13.17.06.17.34,0,.34-.08.34a2.68,2.68,0,0,0-.08,1,3.5,3.5,0,0,1-.08,1.06,12.13,12.13,0,0,0-.08,2.15A10.53,10.53,0,0,0,24.7,76a2.68,2.68,0,0,1,.08,1,2.69,2.69,0,0,0,.08,1s.08.24.08.55,0,.55.08.55.08.24.08.55,0,.55.08.55.08.15.08.34,0,.34.08.34.08.21.08.46,0,.46.08.46.08.11.08.25,0,.26.1.28.1.34.1.91v.88l-.27,0c-.28,0-.4.3-.17.37s-.32.48-.56.48a.25.25,0,0,0-.26.17c0,.09-.08.17-.12.17-.28,0-.72.7-.49.78.06,0,.07.07,0,.11s-.09,0-.11,0a.19.19,0,0,0-.36.06c0,.09,0,.18.09.19s-.07.2-.27.4-.37.33-.39.27-.36-.12-.36.07-.06.17-.13.17a.45.45,0,0,0-.37.33.09.09,0,0,0,.08.09s-.15.24-.44.52-.53.48-.55.42-.34-.12-.4.06a.51.51,0,0,0,0,.23,1.62,1.62,0,0,1-.39.49c-.24.24-.43.37-.45.31s-.23-.12-.43.11-.23.35-.08.41,0,0-.17,0-.27,0-.27.18a1.34,1.34,0,0,1-.38.55c-.21.21-.38.34-.38.29s-.25-.11-.38,0-.15.28,0,.32-.1.24-.36.51l-.56.58c-.22.24-.36.32-.57.32s-.32.29-.11.36,0,.12-.15.28a1.53,1.53,0,0,0-.31.39c0,.09-.11.13-.23.1s-.17,0-.17.13,0,.18-.08.18-.1.31,0,.37.08.06,0,.1a.3.3,0,0,0-.1.25c0,.11,0,.2-.08.2s-.08.08-.08.17,0,.17-.08.17-.08.11-.08.25,0,.25.08.25.08.21.08.46,0,.46.08.46.08.17.08.38,0,.38.08.38.08.24.08.55,0,.55.08.55.08.19.08.42,0,.42.07.42a2,2,0,0,1,.13.73,2.79,2.79,0,0,0,.14.82,1.19,1.19,0,0,1,.08.53c0,.25,0,.45.08.45s.08.13.08.29,0,.29.08.29.08.19.08.42,0,.42.08.42.08.13.08.29,0,.29.08.29.08.15.08.34,0,.34.08.34.08.13.08.29,0,.29.07.29a1.49,1.49,0,0,1,.13.63,1.44,1.44,0,0,0,.14.63s.08.11.08.25,0,.25-.08.25-.08.27.08.31.17.1.17.16,0,.12.08.12.08.11.08.25,0,.25.08.25.08.11.08.25,0,.25.08.25.08.09.08.21,0,.21-.08.21-.08.08-.08.17.06.17.13.17c.29,0,.51.49.29.63s-.11.29,0,.29.33.24.33.46,0,.22.08.22.08.06.08.13,0,.13.08.13.08.08.08.17,0,.17.08.17.08.08.08.17,0,.17.08.17.08.08.08.17,0,.17.08.17a.09.09,0,0,1,.08.09.41.41,0,0,0,.12.21.4.4,0,0,1,.07.37c0,.19,0,.25.09.25s.14.11.14.72c0,.42,0,.71.08.71s.08.09.08.21,0,.21.08.21.08.08.08.17,0,.17.08.17.08.08.08.17,0,.17.08.17.08.08.08.17,0,.17-.08.17-.08.06-.08.13.08.13.25.13.25,0,.25.08a.08.08,0,0,1-.08.08s-.08.08-.08.17,0,.17.08.17.08.08.08.17.06.17.21.17.21,0,.21.08a.08.08,0,0,1-.08.08s-.08.06-.08.13.08.13.25.13.25,0,.25.15a.4.4,0,0,0,.17.27.4.4,0,0,1,.17.26.23.23,0,0,0,.11.19c.08,0,.08.06,0,.1s-.12.29.1.29.25,0,.1.26-.08.19,0,.22a.22.22,0,0,1,.11.2c0,.12.06.16.25.16s.25,0,.25.17,0,.17.08.17.08.06.08.13,0,.13-.08.13-.08.08-.08.17.06.17.15.17a.4.4,0,0,1,.27.17c.18.25.34.21.34-.08,0-.14,0-.25.08-.25s.08-.08.08-.17,0-.17.08-.17.08-.06.08-.13.08-.13.25-.13.25,0,.25-.15a.41.41,0,0,1,.1-.25c.08-.08.08-.12,0-.2s-.12-.24.11-.24.21,0,.21-.08.08-.1.17-.13.24-.38.08-.38a.08.08,0,0,1-.08-.08s.1-.08.21-.08c.3,0,.68-.39.57-.58s.14-.51.39-.51.59-.44.32-.53.13-.3.41-.33.24-.06.25-.34a.58.58,0,0,1,.19-.47.52.52,0,0,0,.19-.3c0-.1.08-.14.25-.14s.36-.2.15-.27.14-.32.35-.32.17-.05.17-.17,0-.17.08-.17.1-.31,0-.36-.08,0,0,0,.11-.08.11-.17,0-.17.08-.17.08-.11.08-.25,0-.25.08-.25.08-.17.08-.38,0-.38.08-.38.1-.25,0-.38a.43.43,0,0,0-.25-.12c-.07,0-.13,0-.13-.08s-.17-.08-.37-.08a.77.77,0,0,1-.42-.08,1.1,1.1,0,0,0-.47-.13c-.23,0-.42-.09-.42-.13s-.08-.08-.17-.08-.17,0-.17-.08-.08-.08-.17-.08-.17-.06-.17-.26,0-.25-.16-.22-.17,0-.19-.14a.19.19,0,0,0-.19-.18.22.22,0,0,1-.2-.13.46.46,0,0,0-.13-.2c-.07,0-.06-.08,0-.11s.13-.36,0-.36a.43.43,0,0,1-.37-.41c0-.1,0-.17-.08-.17s-.08-.08-.08-.17,0-.17-.08-.17-.08-.06-.08-.13a1.79,1.79,0,0,0-.36-.8s-.06-.07-.06-.16a.25.25,0,0,0-.1-.21c-.08,0-.08-.06,0-.1s.12-.37-.15-.37-.25,0-.25-.08a.08.08,0,0,1,.08-.08s.08-.06.08-.13-.08-.13-.25-.13-.3-.08-.26-.61c0-.2,0-.23-.2-.23s-.22,0-.22-.08a.08.08,0,0,1,.08-.08s.08-.06.08-.13-.08-.13-.25-.13-.25,0-.25-.08a.08.08,0,0,1,.08-.08s.08-.08.08-.17-.06-.17-.25-.17-.25,0-.25-.08a.08.08,0,0,1,.08-.08s.08-.08.08-.18,0-.17-.17-.13-.19,0-.23-.1a.55.55,0,0,0-.14-.21c-.06,0-.06-.08,0-.11s.13-.36,0-.36a.43.43,0,0,1-.37-.37c0-.07,0-.13-.08-.13s-.08-.06-.08-.13,0-.13-.08-.13-.08-.15-.08-.34,0-.34-.08-.34S21,102.1,21,102a.36.36,0,0,0-.08-.25,4.26,4.26,0,0,1-.14-1.06,3.64,3.64,0,0,0-.13-1,7.9,7.9,0,0,1-.07-1.51,5.68,5.68,0,0,1,.08-1.51.08.08,0,0,1,.08.08s.06.08.13.08.13,0,.13-.09.23-.33.46-.33.22,0,.22-.08.09-.08.21-.08.21,0,.21-.08.08-.08.17-.08.17,0,.17.08.08.08.17.08.17-.06.17-.13a.43.43,0,0,1,.41-.37c.1,0,.17,0,.17-.08s.11-.08.25-.08.25,0,.25-.08.08-.08.17-.08.17,0,.17.08.32.08.37-.13.11-.21.3-.21.25,0,.25-.08.08-.08.17-.08.17,0,.17-.08.09-.08.21-.08.21,0,.21-.08.11-.08.25-.08.25,0,.25-.08.08-.08.17-.08.17,0,.17.08.08.08.18.08.17,0,.14-.15.11-.33.62-.4a1.12,1.12,0,0,0,.52-.16c0-.07.11-.07.23,0s.34.13.34,0a.43.43,0,0,1,.46-.37c.12,0,.22,0,.22-.08s.09-.08.21-.08.21,0,.21-.08.08-.08.17-.08.17,0,.17.08.08.08.17.08.17-.06.17-.13.21-.36.66-.42c.24,0,.43-.09.43-.13s.09-.07.2-.07a.35.35,0,0,0,.26-.08.35.35,0,0,1,.26-.08c.11,0,.21,0,.21-.08s.11-.08.25-.08.25,0,.25.08c0,.22.32.07.37-.17s.07-.25.47-.25.42,0,.42.25,0,.25.08.25.08.08.08.17,0,.17.08.17.08.09.08.19a1.15,1.15,0,0,0,.13.43c.14.28.16.47,0,.47s-.08.06-.08.13a.13.13,0,0,0,.13.13.42.42,0,0,1,.37.37c0,.07,0,.13.08.13s.08.07.08.16a.25.25,0,0,0,.1.21c.08,0,.08.06,0,.1s-.13.29,0,.29.45.27.31.32-.14.36,0,.36a1.07,1.07,0,0,1,.5.5.09.09,0,0,0,.08.09s.08.08.08.17,0,.17.08.17.08.07.08.15a.4.4,0,0,0,.17.27.4.4,0,0,1,.17.27c0,.08,0,.15.08.15a.09.09,0,0,1,.08.09s0,.07-.08,0-.08,0-.08.12.05.17.21.17.28.11.13.21-.08.29.17.29.25,0,.25.08a.08.08,0,0,1-.08.08s-.08.06-.08.13.08.13.25.13.25,0,.25.16a.25.25,0,0,0,.1.21c.08,0,.08.06,0,.1a.2.2,0,0,0,.11.37c.18,0,.2,0,.16.21s0,.21.17.21.22,0,.22.15a.4.4,0,0,0,.17.27.4.4,0,0,1,.17.26.22.22,0,0,0,.1.19c.08,0,.08.06,0,.1s-.11.29.15.29.25,0,.25.08a.08.08,0,0,1-.08.08s-.08.08-.08.17.06.17.21.17.29.13.11.19,0,.32.22.32.21,0,.21.13,0,.13.08.13.08.07.08.16a.25.25,0,0,0,.1.21c.08,0,.08.06,0,.1s-.12.37.14.37.25,0,.3.29.1.3.16.32.08.07,0,.17-.07.31.08.31.38.28.26.32a.14.14,0,0,0,0,.27.43.43,0,0,1,.37.37c0,.07,0,.13.08.13s.08.08.08.17,0,.17.08.17.08.08.08.17,0,.17-.08.17-.08.06-.08.13,0,.13.09.13.33.23.33.46,0,.22.08.22.08.09.08.21,0,.21.08.21.08.08.08.17,0,.17-.08.17-.08.08-.08.17a.15.15,0,0,0,.17.17.15.15,0,0,1,.17.17c0,.09,0,.17.08.17s.08.13.08.29,0,.29.08.29.08.11.08.25,0,.25.07.25a2,2,0,0,1,.13.73,2.79,2.79,0,0,0,.14.82,2.1,2.1,0,0,1,.08.74c0,.38,0,.66.08.66a.08.08,0,0,1,.08.08s-.05.08-.12.08-.25.16-.14.28.12.4,0,.4-.1.17-.14.38-.09.38-.13.38-.07.08-.07.17,0,.17-.08.17-.08.11-.08.25,0,.25-.08.25-.08.06-.08.13,0,.13-.08.13-.08.11-.08.25,0,.25-.08.25-.08.11-.08.25,0,.25-.06.25-.26.42-.33.84-.18.58-.39.53-.15,0-.15.14,0,.18.08.18.08.08.08.17,0,.17-.08.17-.08.11-.08.25,0,.25-.08.25-.08.09-.08.21,0,.21-.08.21-.08.08-.08.17,0,.17-.08.17-.08.11-.08.25,0,.26-.21.3-.31.37-.13.37.08.08.08.17.06.17,4,.17h3.39v-1.18c.17-.53.13-.87.08-.87a8.24,8.24,0,0,1,0-2.33s.08-.21.08-.46,0-.46.08-.46.08-.07.08-.17,0-.17.08-.17.08-.07.08-.17.06-.17.25-.17.36-.2.15-.27-.06-.07,0-.18a.49.49,0,0,0,.15-.22s.06-.08.13-.08a.42.42,0,0,0,.25-.12c.14-.14.16-.46,0-.46s-.08-.07-.08-.17,0-.17.08-.17.08-.07.08-.17-.06-.17-.13-.17a.42.42,0,0,1-.25-.12c-.14-.14-.16-.38,0-.38s.08-.06.08-.12,0-.12-.09-.12a.45.45,0,0,1-.33-.37c0-.07,0-.13-.08-.13S49,112,49,111.92s-.19-.6-.27-.6-.06-.08-.06-.17,0-.17-.08-.17-.08-.11-.08-.25,0-.25-.08-.25-.08-.06-.08-.12,0-.12-.08-.12-.08-.07-.08-.17,0-.17.08-.17.09-.31-.07-.35a1,1,0,0,1-.43-.74c0-.08,0-.15-.08-.15s-.08-.07-.08-.17,0-.17-.08-.17-.08-.07-.08-.15-.19-.6-.27-.6-.06-.11-.06-.25,0-.25-.08-.25-.1-.17-.13-.37-.09-.37-.13-.37-.07-.08-.07-.17,0-.17-.08-.17-.08-.11-.08-.25,0-.25-.08-.25-.08-.06-.08-.12,0-.12-.08-.12-.08-.11-.08-.25,0-.25-.08-.25-.1-.31,0-.35.07-.1,0-.18-.09-.12-.14-.09-.3-.15-.36-.54-.23-.83-.32-.83-.06-.11-.06-.25,0-.25-.08-.25-.08-.11-.08-.25,0-.25-.08-.25-.08-.09-.08-.21,0-.21-.08-.21-.08-.11-.08-.25,0-.25-.08-.25-.08-.09-.08-.2a.35.35,0,0,0-.08-.25,1.09,1.09,0,0,1-.13-.46,1.08,1.08,0,0,0-.13-.46.35.35,0,0,1-.08-.25c0-.11,0-.2-.08-.2s-.08-.11-.08-.25,0-.25-.08-.25-.08-.13-.08-.29,0-.29-.08-.29-.08-.11-.08-.25,0-.25-.08-.25-.08-.15-.08-.33,0-.33-.08-.33-.08-.13-.08-.29,0-.29-.07-.29a1.66,1.66,0,0,1-.13-.66,2.12,2.12,0,0,0-.14-.71.75.75,0,0,1-.08-.42c0-.2,0-.37-.08-.37s-.08-.19-.08-.42,0-.42-.08-.42-.08-.17-.08-.37,0-.37-.08-.37-.08-.17-.08-.37,0-.37-.08-.37-.08-.19-.08-.42,0-.42.08-.42.08-.08.08-.18,0-.17-.17-.13-.17,0-.17-.2,0-.24-.08-.24-.08-.08-.08-.17.06-.17.25-.17.25,0,.25.08.17.08.37.08a.73.73,0,0,1,.42.08,1.26,1.26,0,0,0,.58.08,1.09,1.09,0,0,1,.56.08,3.87,3.87,0,0,0,1.09.14,4.19,4.19,0,0,1,1.06.12,1.45,1.45,0,0,0,.63.07c.36,0,.63,0,.63.08s.33.08.83.08.83,0,.83.08a4.51,4.51,0,0,0,1.33.08,4.53,4.53,0,0,1,1.33.08,5.62,5.62,0,0,0,1.5.08,5.62,5.62,0,0,0,1.5-.08,4.53,4.53,0,0,1,1.33-.08,4.51,4.51,0,0,0,1.33-.08,2.27,2.27,0,0,1,.92-.08,2.28,2.28,0,0,0,.92-.08s.22-.08.5-.08.5,0,.5-.07a3.51,3.51,0,0,1,1-.12,3.29,3.29,0,0,0,1-.14s.23-.08.48-.08.45,0,.45-.08.19-.08.42-.08.42,0,.42-.08.17-.08.38-.08.38,0,.38.08.07.08.17.08a.15.15,0,0,0,.17-.17c0-.09.06-.17.13-.17s.13,0,.13-.08.19-.08.42-.08.42,0,.42-.08.13-.08.29-.08.29,0,.29-.08.32-.08.79-.08.79,0,.79.08.15.08.33.08.33,0,.33.08.08.08.17.08a.42.42,0,0,1,.41.37c0,.08.07.13.17.13s.17,0,.17-.08a.08.08,0,0,1,.08-.08s.08.11.08.25.2.36.27.15.06-.08.15,0l.33.28c.14.12.17.19.1.21-.23.08-.11.36.15.36s.25,0,.25.08a.08.08,0,0,1-.08.08s-.08.08-.08.18,0,.17.17.13.19,0,.22.09a.45.45,0,0,0,.12.19s0,.16-.06.29a1.12,1.12,0,0,0-.13.39c0,.08,0,.15-.08.15s-.08.09-.08.21,0,.21-.08.21-.08.06-.08.13a.43.43,0,0,1-.37.37c-.08,0-.13.07-.13.17s0,.17.08.17c.2,0,.07.32-.17.4s-.36.35-.17.35.08.06.08.13a.45.45,0,0,1-.33.37s-.09.06-.09.13,0,.13.08.13.08.07.08.17,0,.17-.08.17-.08.11-.08.25,0,.25-.08.25-.08.08-.08.17,0,.17-.08.17-.08.09-.08.21,0,.21-.08.21-.08.08-.08.17,0,.17-.08.17-.08.11-.08.25,0,.25-.06.25-.35.64-.35.88,0,.21-.06.21-.12.12-.18.27c-.15.33-.29.48-.46.48s-.13.07-.13.17,0,.17.08.17.08.08.08.17,0,.17-.08.17-.08.06-.08.13,0,.13-.08.13-.08.07-.08.17,0,.17-.08.17-.1.15-.13.33-.09.33-.13.33-.08.06-.08.13-.08.13-.25.13-.25,0-.25.17,0,.17-.08.17-.1.31,0,.37.08.06,0,.1a.19.19,0,0,0-.1.15.49.49,0,0,1-.17.25.89.89,0,0,0-.22.43c0,.23-.09.28-.26.28-.32,0-.6.35-.34.44s-.13.31-.34.31-.3.14-.18.29-.29.67-.61.67c-.13,0-.19.06-.21.2s-.54.76-.76.76a.15.15,0,0,0-.07.28c.08,0,.08.06,0,.1a.24.24,0,0,0-.1.21c0,.12-.06.16-.25.16s-.25,0-.25.17,0,.17.08.17a.08.08,0,0,1,.08.08s-.11.08-.25.08-.36.2-.17.26-.19.65-.43.65-.23,0-.23.17,0,.17.08.17a.08.08,0,0,1,.08.08s-.11.08-.25.08-.36.2-.15.27-.14.31-.36.31-.18,0-.13.25,0,.25-.16.25-.29.21-.1.27-.14.31-.35.31-.58.43-.31.52-.13.31-.33.31-.69.51-.42.6-.14.31-.35.31-.45.22-.39.37,0,.1-.07.07-.37.16-.37.34a.13.13,0,0,1-.13.13c-.29,0-.78.65-.78,1,0,.2,0,.37-.08.37s-.08.17-.08.38,0,.38-.08.38-.08.19-.08.42,0,.42-.08.42-.08.26-.08.63,0,.63-.08.63-.08.24-.08.54,0,.54.08.54.08.13-.17.29v.35h.87a3.59,3.59,0,0,0,.63-.12,6.25,6.25,0,0,1,1.31-.13,6.16,6.16,0,0,0,1.34-.14,1.49,1.49,0,0,1,.65-.08c.36,0,.62,0,.62-.08s.24-.08.54-.08.54,0,.54-.08.26-.08.63-.28h.88v-.6c-.25-.47-.28-.79-.33-.79s-.08-.21-.08-.46,0-.46-.08-.46a6,6,0,0,1,0-1v-1.24h.42c.23,0,.42,0,.42.08s.17.08.38.08.38,0,.38.08.26.08.63.08.63,0,.63-.08.08-.08.17-.08.17,0,.17-.08a.1.1,0,0,1,.11-.08c.07,0,.11-.16.12-.5,0-.52.14-.76.4-.76a.13.13,0,0,0,.13-.13c0-.07,0-.13-.08-.13s-.08-.08-.08-.17,0-.17.08-.17.08-.11.08-.25,0-.25.08-.25a.09.09,0,0,0,.08-.09c0-.12.17-.28.36-.36s.14-.11.11-.18,0-.13,0-.13.08-.07.08-.16a.22.22,0,0,1,.1-.2c.08,0,.08-.07,0-.22s-.07-.18,0-.18.08-.08.08-.17.06-.17.25-.17.25,0,.25-.17,0-.17-.08-.17a.08.08,0,0,1-.08-.08s.11-.08.25-.08.35-.18.17-.3,0-.21.13-.16.38-.15.38-.34a.17.17,0,0,0-.1-.16c-.16-.05.31-.48.53-.48a5.07,5.07,0,0,0,1.5-1.48.7.7,0,0,1,.21-.34c.11-.12.21-.17.21-.12s.08.09.17.09.17-.06.17-.22.26-.57.31-.39.38.13.33-.07,0-.19.09-.23a.87.87,0,0,0,.28-.2.45.45,0,0,1,.27-.15c.08,0,.14,0,.14-.08s.08-.08.17-.08.17,0,.17-.08.08-.08.17-.08.17,0,.17-.08.06-.08.13-.08.13,0,.13-.08.07-.08.16-.08a.24.24,0,0,0,.21-.1c0-.08.06-.08.1,0s.39.13.34-.07,0-.19.09-.23a.54.54,0,0,0,.21-.14c0-.06.08-.06.11,0,.14.36.36.09.36-.44,0-.31,0-.55-.08-.55s-.08-.29-.08-.72,0-.71.08-.71.08-.22.08-.5,0-.5.08-.5.08-.21.08-.46,0-.46.08-.46.08-.17.08-.38,0-.38.08-.38S78,98,78,97.77a1,1,0,0,1,.08-.51,1.22,1.22,0,0,0,.14-.51c0-.25.09-.46.13-.46s.07-.06.07-.13.08-.13.21-.13a.43.43,0,0,0,.45-.46c0-.17,0-.22.21-.22s.21,0,.21-.08.11-.08.25-.08.25,0,.25.08.15.08.33.08.33,0,.33-.08.09-.08.21-.08.21,0,.21.08.11.08.25.08.25,0,.25.08.08.08.17.08.17,0,.17.08.09.08.21.08.21,0,.21.08.11.08.25.08.25,0,.25.07.11.1.26.12c.29.06.5.23.5.43s.3.18.37,0,.06-.08.1,0a.24.24,0,0,0,.21.11c.09,0,.16,0,.16.08s.06.08.13.08.13.08.13.25.27.37.36.15c0-.07.06-.08.11,0a.73.73,0,0,0,.32.16c.14,0,.2.08.15.1a.18.18,0,0,0-.1.16c0,.15.22.16.27,0s.31.15.31.39.29.32.36.11.31.14.31.36,0,.17.2.13a.49.49,0,0,1,.55.48c0,.23.29.33.36.12s.07-.07.16,0,.42.71.33.74-.08.27.16.27.25,0,.25.17,0,.17.08.17.08.07.08.16a.25.25,0,0,0,.1.21c.08,0,.08.06,0,.1s-.11.29.15.29.25,0,.25.17,0,.17-.08.17-.08.32.09.36a.34.34,0,0,1,.22.22c0,.1.08.17.12.17s.07.08.07.17,0,.17.08.17.08.08.08.17,0,.17.08.17.08.08.08.17,0,.17.08.17.08.06.08.13,0,.13.08.13.08.08.08.17,0,.17.07.17.1.21.13.46.09.46.13.46.08.08.08.17,0,.17.08.17.08.11.08.25,0,.25.08.25.08.08.08.17,0,.17-.08.17-.08.06-.08.13a.13.13,0,0,0,.13.13.43.43,0,0,1,.37.46c0,.12,0,.22.08.22s.08.09.08.21,0,.21.07.21.1.21.13.46a1.23,1.23,0,0,0,.14.51.35.35,0,0,1,.08.25c0,.11,0,.21.08.21s.08.15.08.34,0,.34.08.34.08.09.08.21a.35.35,0,0,1-.08.26.16.16,0,0,0,.08.29.15.15,0,0,1,.17.17c0,.09,0,.17.08.17s.08.13.08.29,0,.29.08.29.08.15.08.33,0,.34.08.36a6.33,6.33,0,0,1,.06,2.44.47.47,0,0,0-.14.27c0,.08-.07.13-.17.13s-.23.22-.06.27-.12.32-.31.32-.18.3,0,.37.08.06,0,.1a.25.25,0,0,0-.1.21c0,.09,0,.16-.06.16a1.8,1.8,0,0,0-.35.8c0,.07,0,.13-.08.13s-.08.08-.08.17,0,.17-.08.17-.08.09-.08.21,0,.21-.08.21-.08.08-.08.17,0,.17-.08.17-.08.11-.08.25,0,.25-.08.25-.08.05-.08.12-.08.14-.17.16-.24.31-.08.31.08.15.08.34,0,.34-.08.34a6.32,6.32,0,0,0-.08,1.6v1.6l1.57-.05A9.56,9.56,0,0,0,94,123a9,9,0,0,1,1.57-.07,5.87,5.87,0,0,0,1.54-.08s.11-.08.25-.08h0v-.92a2.23,2.23,0,0,1,.09-.92s.09-.24.09-.54,0-.54.08-.54.09-.15.09-.33,0-.33.09-.33.08-.09.08-.2a.35.35,0,0,1,.07-.25.85.85,0,0,0,.13-.39c.06-.37.21-.58.43-.58a.13.13,0,0,0,.13-.12c0-.07,0-.12-.08-.12s-.1-.24,0-.38a.44.44,0,0,1,.26-.12c.08,0,.13-.07.13-.17s0-.17-.09-.17-.08-.07-.08-.17,0-.17.08-.17.09-.17.09-.37,0-.38.11-.41.09-.07,0-.21a1.22,1.22,0,0,1-.11-.51c0-.18,0-.33-.09-.33s-.11-.31,0-.35-.12-.56-.38-.56-.23,0-.23-.25,0-.25-.08-.25-.1-.24-.13-.54S98,112,97.92,112s-.08-.11-.08-.25,0-.25-.08-.25-.09-.13-.09-.29,0-.29-.09-.29-.08-.15-.08-.33,0-.33-.09-.33-.09-.13-.09-.29,0-.29-.08-.29-.09-.15-.09-.33,0-.33-.09-.33-.08-.13-.08-.29,0-.29-.08-.29a2.25,2.25,0,0,1-.14-.79,2.17,2.17,0,0,0-.14-.79s-.08-.21-.08-.46,0-.46-.08-.46-.09-.21-.09-.46,0-.46-.09-.46-.08-.26-.08-.62,0-.62-.09-.62-.09-.26-.09-.62,0-.62-.08-.62-.09-.35-.09-.87,0-.87-.09-.87-.08-.32-.08-.79,0-.79-.09-.79-.09-.29-.09-.71,0-.71.09-.71.09-.06.09-.12,0-.12-.09-.12a.46.46,0,0,1-.33-.34.55.55,0,0,0-.19-.27c-.13-.11-.16-.18-.08-.2s.11-.27-.11-.27-.74-.42-.57-.48.13-.25-.08-.48-.38-.27-.43-.11-.07.07-.17,0a2.94,2.94,0,0,0-.31-.25.43.43,0,0,1-.18-.35c0-.23-.21-.33-.28-.13s-.49-.31-.49-.51-.06-.17-.28-.18-.23,0-.17,0,.13-.18-.09-.4a3.54,3.54,0,0,1-.32-.37.44.44,0,0,0-.36-.18c-.13,0-.24,0-.24-.08a.08.08,0,0,1,.09-.08s.09-.06.09-.12-.09-.12-.26-.12-.26,0-.26-.16a.24.24,0,0,0-.11-.21c-.08,0-.08-.06,0-.1a.21.21,0,0,0-.07-.39.34.34,0,0,1-.22-.22c0-.09-.08-.17-.12-.17S90,91.18,90,91s0-.25-.09-.25-.08-.11-.08-.25,0-.25.08-.25.09-.06.09-.12-.08-.12-.17-.12a.15.15,0,0,1-.17-.17c0-.09,0-.17-.08-.17a2.6,2.6,0,0,1-.09-1,2.6,2.6,0,0,0-.09-1s-.08-.22-.08-.5v-.42h.55c.31,0,.55,0,.55.08a4.68,4.68,0,0,0,1.35.08,4.69,4.69,0,0,1,1.35.08,5.56,5.56,0,0,0,1.48.08c1.58,0,1.72,0,1.72.41,0,.09,0,.17.08.17s.08.11.08.25,0,.25.07.25.1.2.13.45.09.45.14.45.08.11.08.25,0,.25.08.25.08.11.08.25,0,.25.08.25.08.09.08.21,0,.21.08.21.08.11.08.25,0,.25.08.25.08.09.08.21,0,.21.08.21.08.07.08.16,0,.16.08.16.08.11.08.25,0,.25-.08.25-.08.31.13.36.29.32.13.42-.1.21.06.27a.49.49,0,0,1,.36.39c0,.07,0,.13.08.13s.08.06.08.12,0,.12.08.12.08.06.08.13a.44.44,0,0,0,.16.27.86.86,0,0,1,.22.38.93.93,0,0,0,.25.4c.13.11.15.17.08.2-.23.08-.12.35.15.35s.25,0,.25.08a.08.08,0,0,1-.08.08s-.08.07-.08.17.06.16.25.16.25,0,.25.08a.08.08,0,0,1-.08.08s-.08.06-.08.12.08.12.17.12.48.24.33.33.06.49.33.49.52.15.37.22.13.69.44.69a.68.68,0,0,1,.33.19l.4.34c.13.1.16.17.09.19a.22.22,0,0,0-.11.2c0,.18.29.22.37.05s.06-.08.1,0a2.47,2.47,0,0,0,.71.67s.08.1.08.21a.53.53,0,0,0,.12.33c.15.14.39.15.39,0s0-.07.08,0a.28.28,0,0,1,0,.23c-.06.15.23.25.32.11s.1-.08.22.06a.92.92,0,0,0,.43.23c.27.06.31.11.28.4s.29.2.37,0,.06-.08.1,0,.16.1.3.1.25,0,.25.08.1.08.21.08.21,0,.21.08.08.08.17.08a.15.15,0,0,1,.17.17.15.15,0,0,0,.17.16c.09,0,.17,0,.17-.08s.24-.08.55-.08h.55v-.6a5.13,5.13,0,0,0-.08-.87s-.08-.09-.08-.2a.35.35,0,0,0-.08-.25.35.35,0,0,1-.08-.25c0-.11,0-.2-.08-.2s-.08-.07-.08-.17,0-.17-.07-.17-.1-.13-.13-.29S108,99,108,99s-.08-.07-.08-.17,0-.17-.08-.17-.08-.07-.08-.16a.24.24,0,0,0-.1-.21c-.08,0-.08-.06,0-.1s.12-.28-.08-.29-.14,0-.08,0c.21-.08.11-.28-.15-.28s-.25,0-.25-.16a.24.24,0,0,0-.1-.21c-.08,0-.08-.06,0-.1s.14-.37,0-.37-.08-.06-.08-.12-.08-.12-.21-.12-.21,0-.21-.16a.24.24,0,0,0-.1-.21c-.08,0-.08-.06,0-.1s.12-.37-.15-.37-.25,0-.25-.08a.08.08,0,0,1,.08-.08s.08-.06.08-.12,0-.12-.08-.12-.08-.07-.08-.17-.06-.17-.21-.17-.21,0-.21-.16a.24.24,0,0,0-.1-.21c-.08,0-.08-.06,0-.1s.11-.29-.15-.29-.25,0-.25-.17,0-.17-.08-.17-.08-.07-.08-.16a.24.24,0,0,0-.1-.21c-.08,0-.08-.06,0-.1s.12-.37-.14-.37-.25,0-.3-.27a.67.67,0,0,0-.15-.33c-.07,0-.06-.08,0-.14s0-.34-.2-.34-.21,0-.21-.12,0-.12-.08-.12-.08-.07-.08-.16a.24.24,0,0,0-.1-.21c-.08,0-.08-.06,0-.1s.12-.37-.14-.37-.25,0-.3-.29-.09-.29-.13-.29-.08-.07-.08-.17,0-.17-.08-.17-.08-.07-.08-.17,0-.17-.08-.17-.08-.08-.08-.17,0-.17.08-.17.08-.06.08-.12-.07-.12-.17-.12a.15.15,0,0,1-.17-.17c0-.09,0-.17-.08-.17s-.08-.15-.08-.33,0-.33-.08-.33-.08-.06-.08-.13a19.55,19.55,0,0,1,4.07.06,3.94,3.94,0,0,0,1,.07,2.62,2.62,0,0,1,1,.08,4.53,4.53,0,0,0,1.33.08,4.51,4.51,0,0,1,1.33.08,2.86,2.86,0,0,0,1,.08,2.87,2.87,0,0,1,1,.08,4.49,4.49,0,0,0,1.33.08,4.51,4.51,0,0,1,1.33.08,2.66,2.66,0,0,0,1,.08,2.66,2.66,0,0,1,1,.08,4.47,4.47,0,0,0,1.33.08,6.07,6.07,0,0,1,1.35.08,18,18,0,0,0,2.34.14,19.15,19.15,0,0,1,2.31.13,4.22,4.22,0,0,0,1.08.07c1,0,1.08,0,1.08.17s0,.17-.07.17a1.47,1.47,0,0,0-.13.63,1.43,1.43,0,0,1-.13.63s-.08.21-.08.46,0,.46-.08.46-.08.26-.08.63,0,.63-.08.63a17,17,0,0,0-.08,2.67,17,17,0,0,0,.08,2.67s.08.26.08.63,0,.63.08.63.08.17.08.38,0,.37.07.37a1.79,1.79,0,0,1,.13.69,1.91,1.91,0,0,0,.14.71s.08.18.08.35,0,.33.08.33.08.09.08.21,0,.21.08.21.08.11.08.25,0,.25.08.25.08.11.08.25,0,.25.08.25.08.09.08.21,0,.21.08.21.08.07.08.17,0,.17.07.17.09.16.12.35.09.37.14.38.12.32,0,.39-.1.21.06.27.41.3.29.34a.14.14,0,0,0,0,.27c.18,0,.44.27.31.31s-.13.35,0,.35a.66.66,0,0,1,.45.47c0,.06,0,.11.08.11s.08.07.08.16a.24.24,0,0,0,.1.21c.08,0,.08.06,0,.1s-.12.37.15.37.25,0,.25.08a.08.08,0,0,1-.08.08s-.08.06-.08.13.08.13.25.13.25,0,.25.13a.43.43,0,0,0,.12.25.39.39,0,0,1,.07.37c0,.21,0,.25.13.25s.46.21.34.29-.09.29.13.29.56.26.39.31a.17.17,0,0,0-.1.16c0,.17.23.39.36.34s.22.05.35.17.2.23.14.25-.11.28.23.59c.5.47.57.51.7.51s.11.06.08.17,0,.17.13.17.18.05.18.13.5.63.71.58.7.35.7.62.23.47.42.35.39.08.35.33.28.22.34.05.31.15.31.39.28.31.36.11,0,0,0,.13.26.43.32.24.19-.1.19.11,0,.2.34.19.5.1.43.37.26.23.35.05.06-.08.1,0a.24.24,0,0,0,.21.1c.09,0,.16,0,.16.08s.07.08.17.08.17.06.17.25,0,.25.13.25.13,0,.13-.09.08-.08.19-.06.18.07.16.21,0,.19.15.19.17,0,.17-.08.07-.08.17-.08.17,0,.17.08.06.08.13.08.13,0,.13.08.06.08.13.08a.43.43,0,0,1,.37.37c0,.15.3.18.35,0s.31,0,.4.22.33.3.33.13.1-.08.21-.08.45.17.45.33.06.09.13.09.13,0,.13-.08.11-.08.25-.08.25,0,.25.08.11.08.25.08.25,0,.25.08.13.08.29.08.29,0,.29.08.15.08.33.08.33,0,.33.08.21.08.46.08.46,0,.46.08.21.08.46.08.46,0,.46.08a2.47,2.47,0,0,0,1,.08,2.47,2.47,0,0,1,1,.08,11.36,11.36,0,0,0,2.75,0,2.1,2.1,0,0,1,.88-.08,2.09,2.09,0,0,0,.88-.08s.21-.08.46-.08.46,0,.46-.08.21-.08.46-.08.46,0,.46-.08.15-.08.33-.08.33,0,.33-.08.13-.08.29-.08.29,0,.29-.08.11-.08.25-.08.25,0,.25-.07.23-.1.52-.13a1.18,1.18,0,0,0,.55-.14c0-.11.35-.11.35,0s.25.09.31-.06.44-.49.44-.27c0,0,.07.08.17.08s.17-.06.17-.13a.43.43,0,0,1,.37-.37c.07,0,.13,0,.13-.08s.06-.08.13-.08.13,0,.13-.08.07-.08.17-.08.17,0,.17.08.07.08.17.08.17,0,.17-.09.27-.38.31-.26.27.14.27,0,.07-.08.17-.08.17-.06.17-.25,0-.25.17-.25.17,0,.17-.08.07-.08.16-.08a.24.24,0,0,0,.21-.1c0-.08.06-.08.1,0s.29.11.29-.1,0-.21.15-.21a.4.4,0,0,0,.27-.17.38.38,0,0,1,.24-.17.48.48,0,0,0,.27-.17c.09-.11.17-.14.2-.08s.29.09.29-.16,0-.25.08-.25a.08.08,0,0,1,.08.08s.08.08.18.08.17,0,.13-.16.27-.53.33-.36.44,0,.44-.31.43-.67.48-.52.44,0,.44-.28a9.58,9.58,0,0,1,2-2c.26,0,.46-.23.35-.41s.29-.67.59-.67.32-.28.11-.35.15-.31.39-.31.21,0,.21-.12,0-.12-.08-.12a.08.08,0,0,1-.08-.08s.09-.08.21-.08.31-.28.1-.36,0-.09.08-.2a.59.59,0,0,0,.19-.24s.07-.13.17-.2a.39.39,0,0,0,.17-.25.39.39,0,0,1,.17-.25.4.4,0,0,0,.17-.27c0-.08,0-.15.07-.15s.09-.07.12-.16.09-.15.22-.11.18,0,.18-.13,0-.18.08-.18.1-.31,0-.37-.08-.06,0-.1a.24.24,0,0,0,.1-.21c0-.09,0-.16.08-.16s.08-.06.08-.12,0-.12.08-.12.08-.08.08-.17,0-.17.08-.17.08-.06.08-.13a.45.45,0,0,1,.33-.37s.09-.06.09-.12,0-.12-.08-.12-.1-.24,0-.38a.42.42,0,0,1,.25-.12c.08,0,.13-.07.13-.17s0-.17-.08-.17-.08-.07-.08-.17,0-.17.08-.17.08-.09.08-.21,0-.21.08-.21.08-.11.08-.25,0-.25.08-.25.08-.09.08-.2a.35.35,0,0,1,.08-.25.34.34,0,0,0,.08-.25.34.34,0,0,1,.07-.25,1.78,1.78,0,0,0,.13-.63,1.28,1.28,0,0,1,.13-.58s.07-.17.07-.37,0-.37.08-.37.08-.22.08-.5,0-.5.08-.5.08-.24.08-.54,0-.54.08-.54a13.07,13.07,0,0,0,.08-2.33,13.08,13.08,0,0,0-.08-2.33s-.08-.21-.08-.46,0-.46-.08-.46-.08-.11,0-.25v-.53h.87c.58.28,1,.31,1,.36a5.93,5.93,0,0,0,1.54.08,5.92,5.92,0,0,1,1.54.08,4,4,0,0,0,1.25.08,4,4,0,0,1,1.25.08,5.57,5.57,0,0,0,1.49.08,7.8,7.8,0,0,1,1.52.08,26.15,26.15,0,0,0,2.8.14,27.26,27.26,0,0,1,2.77.13A4.84,4.84,0,0,0,192,93a3.51,3.51,0,0,1,1.17.08,6.26,6.26,0,0,0,1.58.08,6.24,6.24,0,0,1,1.58.08,3.52,3.52,0,0,0,1.17.08,3.53,3.53,0,0,1,1.17.08,2.74,2.74,0,0,0,.61-.11h.44l.06-1.46c0-.8.06-2.15.06-3V87.29h-.17c-.18,0-.33,0-.33-.08a4.51,4.51,0,0,0-1.33-.08,4.53,4.53,0,0,1-1.33-.08,3.29,3.29,0,0,0-1.12-.08,3.29,3.29,0,0,1-1.12-.08,4.23,4.23,0,0,0-1.29-.08,5.26,5.26,0,0,1-1.34-.08,3.93,3.93,0,0,0-1.13-.08,3.06,3.06,0,0,1-1.08-.08,4.42,4.42,0,0,0-1.31-.09,9.49,9.49,0,0,1-1.48-.08c-.09,0-.12-.07-.06-.08s.14-.26,0-.26-.08-.11-.08-.25,0-.25.08-.25a1.43,1.43,0,0,0,.13-.62,1.47,1.47,0,0,1,.13-.62s.07-.08.07-.17a.15.15,0,0,1,.17-.17c.09,0,.17-.06.17-.12s0-.12-.08-.12-.08-.11-.08-.25,0-.25.08-.25.08-.15.08-.33,0-.33.08-.33.08-.13.08-.29,0-.29.08-.29.08-.07.08-.17a.15.15,0,0,1,.17-.17c.09,0,.17-.06.17-.12s0-.12-.08-.12-.11-.64,0-.71a1.34,1.34,0,0,0,.14-.55c0-.27.09-.5.13-.5s.07-.15.07-.33,0-.33.08-.33.08-.13.08-.29,0-.29.08-.29.08-.11.08-.25,0-.25.08-.25.08-.13.08-.29,0-.29.08-.29.08-.15.08-.33,0-.33.08-.33.08-.13.08-.29a.53.53,0,0,1,.08-.34,1.34,1.34,0,0,0,.14-.55c0-.27.09-.5.13-.5s.07-.15.07-.33,0-.33.08-.33.08-.13.08-.29,0-.29.08-.29.08-.11.08-.25,0-.25.08-.25.08-.13.08-.29a.52.52,0,0,1,.08-.34.52.52,0,0,0,.08-.34c0-.16,0-.29.08-.29s.08-.12.08-.28a.65.65,0,0,1,.08-.36,1.72,1.72,0,0,0,.14-.6c0-.28.09-.52.13-.52s.07-.13.07-.29,0-.29.08-.29.08-.15.08-.33,0-.33.08-.33.08-.06.08-.12.07-.12.17-.12a.15.15,0,0,0,.17-.17c0-.09,0-.17-.08-.17s-.08-.11-.08-.25,0-.25.08-.25.08-.13.08-.29,0-.29.08-.29.08-.15.08-.33,0-.33.08-.33.08-.05.08-.12a.2.2,0,0,1,.13-.16c.14-.05.17-.3,0-.3s-.08-.15-.08-.33,0-.33.08-.33.08-.09.08-.21,0-.21.08-.21.08-.15.08-.33,0-.33.08-.33.08-.13.08-.29,0-.29.08-.29.08-.15.08-.33,0-.33.08-.33.08-.09.08-.2a.35.35,0,0,1,.08-.26.52.52,0,0,0,.08-.34c0-.16,0-.29.08-.29a1.43,1.43,0,0,0,.13-.62,1.48,1.48,0,0,1,.13-.62s.07-.11.07-.25,0-.25.08-.25.08-.13.08-.29,0-.29.08-.29.08-.15.08-.33,0-.33.08-.33.08-.13.08-.29,0-.29.08-.29.08-.11.08-.25,0-.25.08-.25.08-.13.08-.29,0-.29.07-.29a1.48,1.48,0,0,0,.13-.62,1.42,1.42,0,0,1,.13-.62s.08-.11.08-.25,0-.25.08-.25.08-.13.08-.29,0-.29.08-.29.08-.15.08-.33,0-.33.08-.33.08-.13.08-.29,0-.29.08-.29.08-.08.08-.17a.15.15,0,0,1,.17-.17.15.15,0,0,0,.08-.29.44.44,0,0,1,0-.49,1.77,1.77,0,0,0,.13-.63,1.28,1.28,0,0,1,.13-.58s.07-.08.07-.17A.15.15,0,0,1,196,51a.15.15,0,0,0,.17-.17c0-.09,0-.17-.08-.17s-.08-.11-.08-.25,0-.25.08-.25.08-.09.08-.21,0-.21-.37-.21-.37,0-.37-.08a3.52,3.52,0,0,0-1.17-.08,3.53,3.53,0,0,1-1.17-.08,2.46,2.46,0,0,0-1-.08,2.46,2.46,0,0,1-1-.08,3.53,3.53,0,0,0-1.17-.08,3.52,3.52,0,0,1-1.17-.08,2.44,2.44,0,0,0-1-.08,3.88,3.88,0,0,1-1-.07,16.07,16.07,0,0,0-2.07-.13,14.34,14.34,0,0,1-2.05-.14,4.91,4.91,0,0,0-1.19-.08,3.49,3.49,0,0,1-1.16-.08,2.47,2.47,0,0,0-1-.08,2.47,2.47,0,0,1-1-.08,3.52,3.52,0,0,0-1.17-.08,3.54,3.54,0,0,1-1.17-.08,2.25,2.25,0,0,0-.91-.08,3,3,0,0,1-1-.08,4.44,4.44,0,0,0-1.21-.08,3.5,3.5,0,0,1-1.16-.08,2.25,2.25,0,0,0-.91-.08,3.51,3.51,0,0,1-1-.07,18,18,0,0,0-2.21-.13,16.1,16.1,0,0,1-2.17-.14,4.66,4.66,0,0,0-1.17-.07,3.51,3.51,0,0,1-1.17-.08,2.28,2.28,0,0,0-.92-.08,2.27,2.27,0,0,1-.92-.08,3.52,3.52,0,0,0-1.17-.08,3.54,3.54,0,0,1-1.17-.08,2.45,2.45,0,0,0-1-.08,2.46,2.46,0,0,1-1-.08,3.53,3.53,0,0,0-1.17-.08,4.16,4.16,0,0,1-1.17-.08,3,3,0,0,0-.94-.12l-3-.14a15.88,15.88,0,0,1-2.11-.17,5,5,0,0,0-1.19-.08,3.48,3.48,0,0,1-1.16-.08,2.47,2.47,0,0,0-1-.08,2.47,2.47,0,0,1-1-.08,3.53,3.53,0,0,0-1.17-.08,3.53,3.53,0,0,1-1.17-.08,2.27,2.27,0,0,0-.92-.08,2.28,2.28,0,0,1-.92-.08,3.5,3.5,0,0,0-1.16-.08,4.44,4.44,0,0,1-1.21-.08,3,3,0,0,0-1-.08,3.56,3.56,0,0,1-1-.07,17.45,17.45,0,0,0-2.15-.13,15.28,15.28,0,0,1-2.13-.14,5.11,5.11,0,0,0-1.23-.08,3.71,3.71,0,0,1-1.2-.08,5.08,5.08,0,0,1,1.42-.08,5,5,0,0,0,1.42-.08s.15-.08.33-.08.33,0,.33-.08.09-.08.21-.08.21,0,.21-.08.07-.08.17-.08.17,0,.17-.08.07-.08.16-.08A.24.24,0,0,0,134,44c0-.08.06-.08.1,0a.15.15,0,0,0,.28-.07,1.18,1.18,0,0,1,.79-.75c.23,0,.31-.28.11-.36s-.08-.06,0-.11a1.73,1.73,0,0,0,.37-1c0-.17,0-.3.08-.3s.08-.09.08-.21,0-.21.08-.21.08-.32.08-.79,0-.79.08-.79.08-3.62.08-10.71,0-10.71-.08-10.71-.08-.21-.08-.46,0-.46.08-.46.08-.08.08-.17a.15.15,0,0,0-.17-.17c-.09,0-.17-.06-.17-.12s0-.12-.08-.12-.08-.08-.08-.17,0-.17.08-.17.08-.08.08-.17-.06-.17-.21-.17-.21,0-.21-.16a.24.24,0,0,0-.1-.21c-.08,0-.08-.06,0-.1a.15.15,0,0,0-.06-.28.15.15,0,0,1-.17-.17.15.15,0,0,0-.17-.17c-.1,0-.17-.06-.17-.13,0-.27-.35-.48-.45-.27s-.06.08-.1,0a.24.24,0,0,0-.21-.1c-.11,0-.16-.06-.16-.21s0-.21-.17-.21-.17,0-.17.08-.09.08-.21.08-.21,0-.21-.08-.19-.08-.42-.08-.42,0-.42-.08-.24-.08-.54-.08-.54,0-.54.08M110.08,45.45A5.33,5.33,0,0,1,110,46.9c-.06,0-.08,2-.08,5.79s0,5.79-.08,5.79-.08-2.47-.08-7.25c0-7.19,0-7.25.17-7.25s.17.06.17,1.46"/></svg>