<svg id="Layer_1" data-name="Layer 1" xmlns="http://www.w3.org/2000/svg" viewBox="0 0 512 512"><title>chat-bubble-black</title><path d="M510.37,199.56c-.71,59.71-20.08,101.38-54,136.9-22.87,24-50,41.89-80.23,55s-62,21.1-95.14,22.91c-5.23.29-9.08,1.92-12.34,6.65-16,23.29-34.13,44.78-56,62.84-15.3,12.65-32,22.78-52.12,25.93-3,.47-7.19,2.18-8.73-.71-1.2-2.25,3-4.23,4.74-6.3C168.37,489,176.27,473.14,183,456.56c5.41-13.29,9-27.15,13.35-40.77,1.43-4.47.39-6.3-4.48-7.33-40.21-8.45-77-24.81-109.5-50A211.17,211.17,0,0,1,31,301.78C16.63,278.39,7.63,253.22,4.94,226c-3.61-36.56,4.33-70.77,22.43-102.66C50.54,82.52,84.77,53.74,126.19,33c29.92-15,61.71-23.69,95-27.51a318.13,318.13,0,0,1,66.29-.65c52,4.91,99.68,21.83,141.69,53.25,31.46,23.53,55.36,53.26,69.76,90C505.49,164.9,510.76,186.86,510.37,199.56ZM172.05,497.95c17.36-6.31,32.25-16.42,45.36-29.16,17.14-16.65,32.09-35.16,45.66-54.8,2.57-3.73,5.67-6.41,10.55-6.54,4.32-.11,8.65-.41,12.94-.94,27.54-3.38,54.33-9.62,80.12-20.19,24.39-10,47-23,67.13-39.89a196.17,196.17,0,0,0,48.84-61.36c11.67-22.81,18.31-47.08,19-72.75.59-22.61-4.38-44.26-12.9-65.1-12-29.24-30.4-54-54.28-74.38-20.63-17.61-44-31-69.32-41.05A289.75,289.75,0,0,0,229.61,12.33a283,283,0,0,0-86.28,21.95c-42,18.19-77.43,44.57-102.5,83.66A178.85,178.85,0,0,0,12.48,207.3c-.66,13.64,1.79,27.23,5.21,40.45,11,42.34,34.7,76.53,68.7,103.37,32.7,25.81,70.25,41.74,110.91,50.48,8.07,1.74,10.14,4.79,8.34,12.73a326.72,326.72,0,0,1-13.43,43.34A215.36,215.36,0,0,1,172.05,497.95Z"/><path d="M257.13,377.36C217,377,177.89,371,140.67,355.17A265.46,265.46,0,0,1,114,341.5c-16.68-9.43-25.36-25.2-32.87-41.62-9.73-21.27-11.63-43.58-8.88-66.86,2.14-18.13,5.4-35.88,10.94-53.16,6-18.8,15.83-36,25.1-53.27,14.15-26.45,29.72-52.09,45.88-77.36,3-4.66,3.22-4.69,6.16-.09,17,26.53,33.26,53.47,48,81.33,1.59,3,3.28,3.84,6.6,3.55A642.76,642.76,0,0,1,287.28,132c1.33,0,2.76-.25,4,.13,9.67,3.07,14-1.92,18.26-10,13.17-25.27,28.24-49.47,43.53-73.51,1.78-2.8,3.15-4.82,5.82-.6,25,39.59,49.16,79.7,68.38,122.52,5.41,12,7.43,25.19,10.66,37.93a178.33,178.33,0,0,1,5.94,41.9C444.13,273.6,437.2,294.7,426,315s-30,30.23-49.64,39.07c-26.8,12.06-55.1,18.59-84.35,21.39C280.4,376.59,268.82,377.58,257.13,377.36Zm143.54-123.2c0-3.16,0-6.33,0-9.49,0-3.9-1.76-5.58-5.87-5.48-9.32.23-18.7.59-28-.1-7.75-.58-12.18,1.38-15.44,9.15-5.08,12.11-14.89,12.85-23.59,3.22-3.23-3.57-6.22-8-12-8.13-10.48-.27-21-1-31.44-.9-22.71.14-45.08,3.87-67.49,7-3.16.44-4.5,2.54-5.32,5.23-2.41,7.94-7,14.69-11.83,21.26-4.18,5.71-8.76,6.32-14.72,2.45a55.05,55.05,0,0,1-15.86-15.7c-1.35-2-2.49-3.68-5.57-2.74-8,2.43-15.76,5.3-23.49,8.36-2.7,1.07-3.63,3-3.76,5.83-.49,10.4.2,20.73,3.28,30.65,4,12.75,11.61,22.13,25.25,25.87s26.91,7.67,40.6,10.59c18.71,4,37.36,8.43,56.81,5.49,12.63-1.91,25.55-1.4,38-5.06,25.53-7.51,51.84-13.19,71.8-32.87,2.61-2.57,5.48-4.86,8.18-7.34C394,288.72,401.13,273,400.67,254.15Zm-8.54-100.53c-5.82-12.87-11-24.36-16.2-35.87-.87-1.95-1.9-2.16-3.27-.55q-10.19,12-20.36,24c-1.2,1.41-1.63,2.68.68,3.23C365.57,147.38,378.16,150.33,392.13,153.62Zm-272,.82,38.75-9.26c2.3-.55,2-1.58.76-3.08q-10-11.74-20-23.55c-1.63-1.94-2.79-2-3.9.49C130.76,130.42,125.7,141.78,120.1,154.44ZM381,182.15c-1.66.1-3.33.1-5,.31q-33.85,4.4-67.7,8.84c-3.19.41-5.56,1.54-5.06,5.3s3.52,3.59,6.13,3.06a709.84,709.84,0,0,1,72.37-11.3c2.92-.29,7.91-.81,7.6-3.88C389.1,181.74,384.11,182.29,381,182.15ZM121.85,203.32c4.36,2.33,4.86,2.63,8.52,2.56,24.49-.43,49-.58,73.41,1.78,3.18.31,6.27,0,6.18-4.4-.09-4.2-3.13-4.2-6.05-3.93-6.81.62-13.62,1.35-20.45.7-15.81-1.5-31.64-.72-47.46-.64C131.2,199.4,126.39,199.93,121.85,203.32Z"/></svg>