<svg id="Layer_1" data-name="Layer 1" xmlns="http://www.w3.org/2000/svg" viewBox="0 0 500 282"><defs><style>.cls-1{fill:#0080ad;}</style></defs><title>logoSmall</title><path class="cls-1" d="M350.8,188.1c-7.1,14.1-13.8,27.3-20.2,40.6-1.8,3.8-4.2,5.3-8.4,5.3q-73.5-.15-147,0c-4.5,0-7-1.6-8.9-5.6-5.8-12.2-12-24.2-18-36.2-.7-1.4-1.6-2.8-2.3-4.2-2,.6-2.2,2.3-2.8,3.6-6.3,12.5-12.6,25-18.7,37.5-1.7,3.4-3.7,4.9-7.6,4.9-32.7-.1-65.3-.1-98-.1-6.5,0-7.2-1.3-4.3-7q50.55-102,101.6-203.8c1.6-3.2,3.5-4.7,7.3-4.7,14.5.2,29,.1,43.5,0a8.32,8.32,0,0,1,7.5,3.8c23.7,32.1,47.6,64,71.2,96.1,2.8,3.7,4.1,3.1,6.4,0,24-32.1,48.1-64.1,72-96.2a8.32,8.32,0,0,1,7.5-3.8c14.8.1,29.7.1,44.5,0,3.4,0,5.4,1.1,7,4.3Q433.65,124,484.4,225.5c3.3,6.5,2.1,8.3-5.1,8.4-32.5,0-65-.1-97.5.1-4.8,0-7.4-1.6-9.7-5.9C364.9,215.1,359,201.5,350.8,188.1ZM248.6,166.4a9,9,0,0,0,8.8-8.5c.1-4.5-4-9-8.3-9a9.11,9.11,0,0,0-9.1,9.3C240.1,162.4,244.3,166.4,248.6,166.4Z"/><path class="cls-1" d="M275.9,45.4V64.9c0,1.7.2,3.5-1.6,4.4-2.1,1-3.4-.7-4.7-1.9C264,61.9,258.4,56.5,253,50.8c-3.2-3.4-5.6-3.2-8.7.1-5.4,5.7-11,11.1-16.6,16.6-1.2,1.1-2.3,2.7-4.2,2-2.2-.8-2-2.9-2-4.7v-39c0-1.8-.3-3.9,1.9-4.8s3.4,1,4.6,2.2c5.6,5.5,11.2,11,16.6,16.6,3,3.2,5.4,3,8.3-.1,5.4-5.7,11-11.1,16.6-16.6,1.3-1.3,2.5-3,4.6-2.1s1.7,3,1.7,4.8C275.9,32.4,275.9,38.9,275.9,45.4Z"/></svg>