<svg id="Layer_1" data-name="Layer 1" xmlns="http://www.w3.org/2000/svg" viewBox="0 0 612 609.39"><defs><style>.cls-1{fill:#cc3;}</style></defs><title>right-arrow-green</title><path class="cls-1" d="M2.32,0C3.91-.18,4.81.59,5.77,1L609,302.69a9.92,9.92,0,0,1,1.07.55c.63.42,1.76.47,1.67,1.5s-1.12,1.06-1.79,1.47c-.44.26-.91.46-1.36.68L218.41,502,6.22,608c-1.13.56-2.62,2-3.5,1.14-1.09-1.11.5-2.55,1.09-3.74q74.2-148.51,148.51-297a7.52,7.52,0,0,0,0-7.6Q78.18,152.79,4.19,4.67A14.75,14.75,0,0,1,2.32,0Z"/></svg>