<svg id="Layer_1" data-name="Layer 1" xmlns="http://www.w3.org/2000/svg" viewBox="0 0 834 720"><defs><style>.cls-1{fill:#cc3;}</style></defs><title>trade-green</title><path class="cls-1" d="M485,720c-19-4.05-33.16-16.67-48.18-27.58-25.08-18.21-49.82-36.89-74.7-55.37-6.34-4.71-6.31-4.68-11.53,1s-10.22,11.45-15.76,16.73c-11.73,11.17-25.64,14.91-41,9.41-15.71-5.63-24.28-17.71-26.59-34-1.08-7.61,2-14.46,6.95-20.23,13.07-15.13,26.34-30.08,39.36-45.26,10-11.63,19.87-23.35,29.48-35.29,10.69-13.29,24.17-18.49,40.74-14.61,25.38,6,37.14,38,22,59.2-7.78,10.89-17.38,20.21-26.29,30.1-2.94,3.27-2.48,4.74.66,7.31,26.72,21.88,55.42,41.07,83.32,61.35,5.53,4,11.11,8,16.71,11.86,7.12,5,14.9,5.68,22.87,2.78,15.1-5.49,28.37-13.31,35.24-28.94,4.48-10.18,3.55-14.24-5-21.13q-48.73-39.12-97.41-78.3c-8-6.43-10.44-13.91-7.4-22,2.31-6.1,7.05-8.83,13.42-7.42,9.63,2.14,18,6.86,25.57,13.08q41.92,34.41,83.81,68.85c22.35,18.42,50.61,8.63,56.73-19.73.74-3.41,1.4-6.86,1.83-10.32,1.56-12.6-3.21-22.34-13.36-29.82-30.45-22.46-59.69-46.47-89.07-70.3a40,40,0,0,1-6.74-6.65c-5-6.48-5.13-17-.29-21.68,4.58-4.43,16.71-4.42,22.39.13,10.67,8.53,21.29,17.14,31.94,25.7Q585.8,504,617,529a77.4,77.4,0,0,0,7.72,5.51c8.19,5,13.9,4.78,20.7-2C657,520.85,666,507.56,669.16,491c2.06-10.64-.05-19.14-9.1-26.53-25.54-20.87-50.49-42.47-75.68-63.77a76.49,76.49,0,0,1-12.66-13.42c-4.62-6.36-5.36-11.94-2.15-16.56,3.31-4.77,11.86-7.74,17.95-6.15,5.12,1.34,9.43,4.21,13.36,7.6q37.46,32.33,74.84,64.76a104.15,104.15,0,0,0,8.93,7.22c5.72,3.93,12.12,5.26,18.46,2.05,10.14-5.12,19.77-11.13,27.07-20.13,12.19-15,11.23-30.92-3.23-43.84-24.72-22.09-49.69-43.92-74.62-65.77q-49.81-43.64-99.75-87.15c-8.91-7.78-18-15.36-26.69-23.38-6.59-6.08-14.14-7.71-22.65-6.51-28,4-56.08,7.71-83.93,12.82-8.44,1.55-16.18,5.14-23.93,8.59-27.63,12.3-53.52,9-77.92-8.39-.68-.48-1.37-.95-2-1.46-15.61-12.24-16.55-26.89-2.34-40.71,5-4.87,10.46-9.29,15.91-13.67,9.61-7.73,19.16-15.51,28.42-23.66,15.22-13.4,33.61-19.32,53.45-21.17,21-2,41.95-4.93,62.78-8.19.15-2.11-1.27-2.06-2.31-2.17-24.35-2.46-48.65-5.84-73.2-5C368,97.5,338.07,101,308.29,105.76q-23.67,3.79-47.36,7.5c-14.32,2.24-24.93,9.62-31.74,22.49-23.76,44.93-48.6,89.26-73.64,133.49-5.83,10.29-11.57,20.64-17.43,30.91-3,5.27-4.14,10.57-2.7,16.72,3.15,13.45,5.88,27,8.58,40.56.75,3.77,2,4,4.83,1.79,5.93-4.59,11.86-9.18,18.8-12.25,20.56-9.11,42.37-2.23,53.13,16.83,7.75,13.72,6.46,28.6-4.1,40.32-14.5,16.09-29.28,31.93-44,47.81-10.54,11.36-21,22.86-31.85,33.86C121.77,505,88.34,499,77.23,474.69c-4.4-9.64-4-19.35-.57-29.19,4.94-14.27,15.12-25,24.44-36.25,4-4.88,8.1-9.73,12.3-14.47A17.13,17.13,0,0,0,117.58,379c-2.5-11.21-5.23-22.38-7.92-33.55a9,9,0,0,0-6.47-7c-25.41-6.89-46.44-22.23-68.52-35.51a205.67,205.67,0,0,0-23.38-12.41c-4.7-2.06-8.65-5-11.28-9.48V271c8.63-21.86,19-42.93,29.61-63.87a1497.9,1497.9,0,0,1,86.57-149,165.13,165.13,0,0,1,24.5-29.57c9.71-9.1,18.73-9.78,29.76-2.37,2.21,1.49,4.29,3.16,6.4,4.79,18.61,14.36,36,30.11,53.48,45.82,7,6.26,15.05,8.1,24.15,6.3q13.22-2.62,26.49-5c51.86-9.46,103.94-16,156.86-12.52C470,67.75,500.63,75,528.44,92c3.71,2.28,7.53,4.15,12.15,3.91,7.7-.41,12.18-5.5,16.48-10.91,14.72-18.51,29.21-37.21,44.19-55.51C609.67,19.26,617,8,628,0h9a43.26,43.26,0,0,1,11.24,7.32Q667.07,23.71,686,40q67.31,58,134.61,116c4.9,4.23,10.17,8.13,13.37,14v9a58.7,58.7,0,0,1-7.64,10.46Q801.49,216.14,776.74,243a44.45,44.45,0,0,0-11.59,23.88c-4.42,28.12-12.41,54.91-30.1,77.91-1.8,2.34-1,3.78.83,5.46a160.29,160.29,0,0,0,14.56,11.37c10.07,7.09,17.51,16.32,18.79,28.85,2.8,27.52-6.4,50.79-26.84,69.36-9.16,8.32-20.28,13.35-32.2,16.45-5.49,1.43-8.63,4.39-9.32,10.19a129.48,129.48,0,0,1-2.64,13.72c-6.52,28.22-20.26,51.44-46.81,65.07-6.95,3.57-9.59,8.61-10.15,15.71-.75,9.5-2.35,18.89-5.93,27.74-10.15,25.07-27.13,41.6-55.45,43.68-5.86.43-9.34,3.52-10.93,9.24-4.07,14.66-12,27-23.19,37.27A87.24,87.24,0,0,1,505,720ZM209.67,103.71c-.1-2.49-1.83-5-4.15-6.93-15.31-12.64-29.09-26.93-43.73-40.29-2.25-2.05-3.48-1.73-5,.59-2.43,3.59-5.1,7-7.62,10.53C105.13,129.09,70.53,196,37,263.4c-1.42,2.85-1.12,4.25,1.73,5.89q28.8,16.58,57.41,33.51c2.89,1.7,4.46,1.68,6.2-1.58q11.41-21.38,23.25-42.53c27.41-49,53.09-98.93,81.73-147.23A13.62,13.62,0,0,0,209.67,103.71Zm585.62,72.05c-.38-1.39-1.55-2.12-2.56-3-3.32-2.78-6.73-5.46-10-8.32-30.95-27.35-61-55.68-93-81.91C674,69.56,658,56.71,642,43.87c-5.29-4.26-8.79-3.75-13.15,1.45C615.85,60.9,602.83,76.5,589.67,92c-2,2.33-2.18,3.83.41,5.57,1.24.83,2.28,1.94,3.44,2.9L679,171.17Q711.5,198.09,744,225c2.43,2,4.28,3.12,7,.06,14.06-15.58,28.33-31,42.52-46.43C794.32,177.83,795.3,177.09,795.29,175.76Z"/><path class="cls-1" d="M226.83,633.26c-14.39-1.1-25.57-8.39-32.89-21.29-7.61-13.4-6.58-26.93,1.29-39.85,5.39-8.85,12.71-16.27,19.53-24q31.58-35.78,63.48-71.28c13.7-15.22,30.76-19.5,49.94-13a33.62,33.62,0,0,1,14.74,54.42c-28.24,32.17-55.64,65.08-83.49,97.6C251,625.63,240.91,632.54,226.83,633.26Z"/><path class="cls-1" d="M131.39,532.54c-.27-10.88,4.34-20.06,10-28.82,11.24-17.24,25.11-32.37,38.85-47.58,12.73-14.09,25.85-27.84,38.87-41.67,11.28-12,32.68-15.61,46.69-8,14.81,8,23.26,26.24,19.46,41.88-1.26,5.18-4.06,9.47-7.5,13.38-29.48,33.54-58.73,67.29-88.6,100.48C175.15,577.8,160,575.61,143,560.36,135.17,553.32,131.41,542.93,131.39,532.54Z"/></svg>