<svg id="Layer_1" data-name="Layer 1" xmlns="http://www.w3.org/2000/svg" viewBox="0 0 768 720"><title>auction-black</title><path d="M1,609a69.85,69.85,0,0,1,9.43-11Q104.67,503.9,198.87,409.7q61.33-61.31,122.75-122.54c3.66-3.63,3.51-5.47-.07-9-21.15-20.79-42-41.85-63-62.82-8.62-8.62-9-14.07-4.86-25.63,4.51-12.51,7.74-25.48,11.46-38.27,7.34-25.27,14.54-50.58,22-75.8,1.22-4.12.66-6-3.53-7.9-39.82-17.85-79.53-35.95-119.27-54C155.48,9.74,155.5,9.7,160,1h3c12.63,6.78,25.92,12.15,38.93,18.12C229.63,31.84,257.47,44.27,285.18,57c3.88,1.78,6.39,2.72,9.24-1.94s8.08-6.19,13.68-4.69c4.18,1.13,8.39,2.19,12.5,3.55C328.93,56.66,332.5,63,330,71.47c-1.23,4.1-.37,5.79,3.55,7.46,12.41,5.29,24.57,11.17,36.94,16.56,4.07,1.77,3.84,3.91,2.33,7.41-1.65,3.81-3.56,3.87-6.94,2.28-11.75-5.54-23.68-10.72-35.44-16.24-3.58-1.68-5.11-1.19-6.26,2.86q-14,49.27-28.42,98.42c-1,3.33-.35,5.45,2.08,7.88q84.25,84,168.33,168.23c2.08,2.09,4.14,3.49,7.33,3.48q57.75-.14,115.49-.07c.79,0,1.57-.14,2.48-.23-.41-2.26-2.16-3.16-3.39-4.38q-30.8-30.71-61.66-61.36c-4-4-7.83-8.19-11.74-12.29-6.68-7-6.71-14.1.2-21q26.27-26.41,52.67-52.69Q590,195.3,612.43,172.87c7.5-7.47,14.62-7.47,22.12-.09q3,3,6,6c7.76,7.86,7.82,14.71.08,22.46q-37.46,37.49-75,74.94c-5,5-5,5,0,9.94q86.1,86.07,172.3,172c6.56,6.52,7.7,12.92,5.34,21.6-9,32.94-17.35,66-26,99.08-2.68,10.32-5.27,20.66-8.06,30.94-2.69,9.9-8.84,13.38-18.91,10.94-3.24-.78-6.48-1.57-9.67-2.51-9-2.63-12.69-8.79-10.36-17.94,5.83-22.92,11.84-45.8,17.77-68.69,4.22-16.28,8.36-32.59,12.71-48.84.74-2.77.35-4.63-1.69-6.65-16.45-16.31-32.89-32.63-49.11-49.17-3.36-3.43-4.93-1.36-7.16.86C603.77,466.91,565.42,506.85,525.33,545c-58.6,55.68-114.5,114-172.2,170.6A58,58,0,0,1,346,721H335a42,42,0,0,1-9.67-7.8c-9-9.13-9.08-17.4-.08-26.42q22.06-22.13,44.19-44.19Q422,590.09,474.53,537.66c3-3,3.07-4.57-.39-7.24-9.62-7.44-19.11-15.07-28.3-23-3.78-3.27-6-3-9.45.47-27.39,27.53-55,54.85-82.48,82.26-13.29,13.24-17.23,13.24-30.65-.18-9.71-9.71-9.73-16.07,0-25.77Q373.61,513.8,424,463.44c1.65-1.65,3.35-3.25,5.13-4.75,7.89-6.66,12-6.65,20.17,0,13.44,10.93,26.94,21.8,40.26,32.88,3.06,2.55,4.88,2.47,7.75-.43,25.34-25.57,50.85-51,76.29-76.44,1.12-1.12,2.72-2,3-3.91-1.85-1.19-3.89-.61-5.8-.61-35.33,0-70.66-.1-106,0a25.8,25.8,0,0,1-19.6-8.11c-24.71-25-49.71-49.75-74.49-74.71-2.72-2.74-4.33-2.95-7.17-.09Q311,380.08,258.16,432.63c-2.58,2.57-3,4,.19,6.59,26.87,21.63,53.54,43.5,80.42,65.11,5.4,4.34,8.07,9.23,7.72,16.28-.27,5.54-2.94,9.34-6.56,13q-49.53,49.46-99,99c-13.41,13.4-17.66,13.38-31.14-.1-9.71-9.71-9.68-16,.12-25.83q40.84-40.83,81.72-81.61c2.81-2.8,3.46-4.47-.13-7.36q-37.21-29.9-74.06-60.25c-4-3.31-6.17-3.32-10,.54q-85,85.42-170.35,170.46a46.55,46.55,0,0,1-5.56,5A15.53,15.53,0,0,1,12,632.77C7.76,629.08,3.55,625.23,1,620Z"/><path d="M769,335c-2.88,11.8-7.66,22.57-15.67,31.94-16.24,19-44.14,26.9-68.64,19a66.25,66.25,0,0,1-45.14-55.18c-4.09-37.18,25.79-73.33,67.42-72.06,27.68.84,52.49,20.46,60.28,48,.59,2.08,1.16,4.16,1.74,6.24Z"/><path d="M433.89,165.68c35.69,0,65.09,29.22,65.19,64.75S468.86,296.3,433.32,296c-35.83-.32-64.7-29.74-64.63-65.87C368.77,194.3,397.74,165.66,433.89,165.68Z"/></svg>