<svg id="Layer_1" data-name="Layer 1" xmlns="http://www.w3.org/2000/svg" viewBox="0 0 612 622.11"><defs><style>.cls-1{fill:#cc3;}</style></defs><title>buy-green</title><path class="cls-1" d="M306.78,617.32c-66-.72-125.91-20.45-179-59.49C103,539.63,82,517.13,64.09,492.07,50.47,473,38.27,452.9,29.49,431A326.35,326.35,0,0,1,7.32,341.7C2.43,292.76,10,245.6,27.06,199.88,40.67,163.45,61.5,131.47,87.8,102.7S145.43,52.39,180.12,35c35.6-17.87,73.34-26.19,112.72-28.5a282.69,282.69,0,0,1,132,23.84C460.38,46,493,66.81,520,95.19c18.27,19.21,35.08,39.76,48,63.05,20.64,37.21,34.2,76.77,38.68,119.33a329.55,329.55,0,0,1-1.5,82.53c-2.75,18.8-8.14,37-14.25,55-8.64,25.43-21.46,48.59-36.22,70.95-16.46,25-37.44,45.38-60,64.54C455.22,584,409.31,603,359.19,612.72A251,251,0,0,1,306.78,617.32ZM567.09,315.87c-.15-14.59-.91-25.87-2.07-37.15-4.59-44.45-22.44-83.88-46.24-120.81-15.81-24.53-37-44.6-60.59-61.3-59.92-42.45-126.7-57.07-199-43.92-41.09,7.47-78.47,23.72-111.08,50.54-22.84,18.79-43.31,39.45-59,64.71-13,20.85-23.62,42.6-30.33,66.32C49.53,266.93,45.11,300,47.92,334a272.17,272.17,0,0,0,25.41,94.14c12.56,26.72,30.69,49.62,50.53,71.12,24.91,27,56,45.13,89.66,58.88a239.46,239.46,0,0,0,109.55,17.51c31.94-2.35,62.34-9.6,91.4-23.68,34.39-16.66,64.82-37.82,89.14-67.64C520,464.21,534.35,443,544.8,419.06A268,268,0,0,0,567.09,315.87Z"/><path class="cls-1" d="M310,367.35c0-48.67.06-97.34-.09-146,0-4.91,1.23-6.47,6.45-7.39,21.11-3.74,37.28-14.9,47-34.41,1.56-3.14,3.11-3.83,6.33-2.41q13.79,6.05,27.79,11.61c3.08,1.23,3.77,2.65,2.42,5.77-7.27,16.81-7.18,33.75-.21,50.62,1.57,3.8,3.14,8.05,6,10.8,6.33,6.16,4,12.57,2.14,19.33-4.38,16.19-11.52,31.27-18.07,46.63-7,16.35-7.54,33.62-5.53,51.19,1.59,14,4.77,27.6,8,41.22,3.36,14.23,8,28.16,11,42.46,2.22,10.68,4.44,21.41,6.18,32.22,1.34,8.31,1.89,16.75,3.8,25,1.4,6,.54,7.22-5.55,7.23q-45.72,0-91.44,0c-5.75,0-6.19-.5-6.19-6.38Q310,441.07,310,367.35Z"/><path class="cls-1" d="M298.76,367.81v146c0,7.25-.15,7.38-7.6,7.38H207.39c-6.65,0-6.9,0-6.48-6.66a219.46,219.46,0,0,1,3.58-26.34c1.16-6.22,2-12.52,3.38-18.69,1.94-8.67,4.5-17.2,6.33-25.89,1.76-8.39,4.53-16.49,6.43-24.86,2-8.65,3.76-17.37,6-26,1.27-4.9,1.76-10,2.54-15a122.75,122.75,0,0,0-1.84-47.89c-1.61-6.73-4.76-13.19-7.88-19.44-7.08-14.16-11.77-29.13-16-44.29a5.55,5.55,0,0,1,1.25-5.28c5.13-6.73,9.83-13.68,12.17-22,3.51-12.51,4.68-25,0-37.4-4-10.69-4-10.49,6.44-15.36,7.24-3.36,15.05-5.29,22-9.22,2.6-1.46,4.35-.27,5.44,2,8.57,18,22.81,29.2,41.73,34.32,5.48,1.48,6.39,4.2,6.38,9.12C298.72,270.8,298.77,319.31,298.76,367.81Zm-15.23,3.73c4.59.09,7.48-2.69,7.5-7.23s-3.63-8.71-7.64-8.76-7.25,3.87-7.26,8.4a7.42,7.42,0,0,0,7.25,7.59h.15Zm.22,57.32c4.72,0,7.17-2.46,7.27-7.42.08-4.16-2.31-6.94-6.06-7-5.86-.17-8.91,2.14-8.9,6.76,0,4.89,2.74,7.61,7.7,7.66Zm7.19-180.7a7.45,7.45,0,0,0-7.24-7.4c-3.78,0-7.55,4-7.48,7.91a7.86,7.86,0,0,0,7.4,7.42c3.9,0,7.38-3.81,7.33-7.93Zm.06,58.16a8,8,0,0,0-7.46-7.87c-3.36,0-7.2,3.6-7.4,7-.23,3.88,3.88,8.45,7.59,8.45S290.9,310.21,291,306.32Zm-7.19,165.26a7.57,7.57,0,0,0-7.77,7.36q0,.22,0,.45c0,3.61,3.41,6.52,7.47,6.45s7.5-3.47,7.53-7.16a6.91,6.91,0,0,0-6.71-7.1h-.52Z"/><path class="cls-1" d="M308.92,203.68c-17.29-.71-29.74-6.89-39.71-18.18-2.73-3.09-5.64-6.07-7.4-9.91-1-2.26-1.52-4.43,1.32-5.59,11.92-4.85,20.83-13.86,30.46-21.87a8.17,8.17,0,0,1,3.19-2.05c5.23-1,5.58-4.62,6.16-9.06,1.26-9.69-4.86-14.82-11-20.23-6.9-6.09-10.84-13.49-10.56-23,.29-10.07,11.06-23.9,24-24.3,15.08-.47,25.44,10.45,27,23.4a6.4,6.4,0,0,1-1.21,5c-.87,1.12-1.49,2.53-3.31,2.25s-2.35-1.6-2.66-3c-.78-3.56-1.13-7.19-2.89-10.53-3.17-6-11.64-10.34-18-8.9-8.9,2-14.38,8.34-14.92,16.27-.44,6.46,1.87,11.46,6.42,15.72,2.8,2.62,5.46,5.38,8.35,7.89,5.3,4.59,7.9,10.27,7.31,17.28-.44,5.22-.31,9.81,6.35,11.19,3,.62,4.89,3.42,7,5.56,7.12,7.15,14.81,13.5,24.29,17.38,3.65,1.49,4.56,3.53,2.33,7.43-6.44,11.26-15.6,19.38-27.56,23.92C318.6,202.27,312.89,204.44,308.92,203.68ZM307,173.13h19.63a14.55,14.55,0,0,0,4.67-.75c1.65-.59,2.4-2.23.64-3.2-4.14-2.28-8.41-5.62-12.79-5.88-12.52-.75-25.48-2.53-36.79,5.53-.62.44-1.63.5-1.72,1.4-.11,1.08.64,1.69,1.58,2.14a11.61,11.61,0,0,0,5.16.79Z"/><path class="cls-1" d="M184.52,217.13c-1.47-8.35,9.54-16.95,15.91-18.47a3.56,3.56,0,0,1,4.45,2.36l.06.22c.64,2,2,4.25-.69,6q-3.2,2.08-6.37,4.21c-2.84,1.9-3.75,4.69-3.29,7.91.51,3.57,3.58,3.46,6.17,4.15,2.41.65,5.79-.54,6.75,3.18,1,4.07-1.43,7-6,7.17C191,234.15,184.52,227.77,184.52,217.13Z"/><path class="cls-1" d="M429.41,218.19c.1,10.56-8.19,16.45-17.88,15.69-4-.32-4.72-3.18-5.14-6.31-.51-3.72,2.32-3.36,4.62-3.87,3.26-.72,7.3-.24,8.23-5,.79-4-1.63-6.25-4.45-8.23-1.29-.91-2.81-1.5-4.13-2.37-3.45-2.27-3.39-6.31,0-8.62a4,4,0,0,1,3.17-.6C422.55,200.51,429.52,209.16,429.41,218.19Z"/></svg>