<svg id="Layer_1" data-name="Layer 1" xmlns="http://www.w3.org/2000/svg" viewBox="0 0 612 609.39"><title>left-arrow-black</title><path d="M611.76,609.36c-1.59.21-2.49-.56-3.45-1Q306.68,457.52,5.07,306.7A9.92,9.92,0,0,1,4,306.15c-.63-.42-1.76-.47-1.67-1.5s1.12-1.06,1.79-1.47c.44-.26.91-.46,1.36-.68q195.1-97.55,390.19-195.1,106.07-53,212.19-106c1.13-.56,2.62-2,3.5-1.14,1.09,1.11-.5,2.55-1.09,3.74q-74.2,148.51-148.51,297a7.52,7.52,0,0,0,0,7.6q74.14,148,148.13,296.12A14.75,14.75,0,0,1,611.76,609.36Z"/></svg>