<svg id="Layer_1" data-name="Layer 1" xmlns="http://www.w3.org/2000/svg" viewBox="0 0 548.53 439.53"><title>like-black</title><path d="M269.26,83.39c2.42-5.26,4.4-10.69,7.21-15.74,15.31-27.48,38.33-45.73,67.6-56.22,27.58-9.88,56.31-13.52,85.13-9,42.19,6.65,75.58,27.92,97,65.76,11.61,20.56,17.44,43.21,20.94,66.35,4.71,31.13-2.67,60.1-17.08,87.65-19.83,37.9-47.91,69-79.34,97.48-36.33,32.88-76.46,60.47-118.4,85.61-20,12-40.59,22.92-61,34.22-3.75,2.08-4.59-1.05-6.55-2.12-8.34-4.51-16.62-9.15-24.87-13.83-47-26.73-91.82-56.74-132.56-92.43-31.2-27.33-59.38-57.45-80.68-93.37C14.69,217.62,5.18,196.5,1.52,173c-4-25.67.34-50.32,7.39-74.87C15,77,24.19,57.57,39.3,41.44,63.9,15.16,94.21,1,130.38.07c27-.69,53.15,3.34,77.61,15.43,27.6,13.64,47.23,34.71,58.49,63.46C267,80.42,267,82.32,269.26,83.39Z"/></svg>