<svg id="Layer_1" data-name="Layer 1" xmlns="http://www.w3.org/2000/svg" viewBox="0 0 600.82 509.8"><defs><style>.cls-1{fill:#cc3;}</style></defs><title>open-like-green</title><path class="cls-1" d="M600.81,155.3c.25,24-5.29,46.24-14.9,67.6-10.41,23.14-24.85,43.65-41.23,62.9-12.89,15.14-27.39,28.68-41.66,42.46q-21.79,21-43.63,42L417.3,410.83,367,459.31l-42.08,40.53c-3.46,3.33-7,6.63-10.42,10-7.37,7.11-20.8,7.25-28.61-.38-9.61-9.38-19.31-18.68-29-28l-55.08-53.17-34-32.81-54-52.09q-17.23-16.63-34.47-33.24c-2.49-2.4-5.12-4.66-7.62-7-9.09-8.65-16.82-18.49-24.57-28.29a250.92,250.92,0,0,1-25.48-38.26,209.48,209.48,0,0,1-16.8-43.23,132.54,132.54,0,0,1-4.75-31c-.74-26.4,2.62-52.13,12.77-76.71A130.2,130.2,0,0,1,38.39,45.93C57.06,26,80,13.4,106.18,6.51A190.7,190.7,0,0,1,140.34.86C147.55.31,154.76-.11,162,0a140,140,0,0,1,42.47,7.79c18.64,6.32,35.33,16.2,51.3,27.49,15.43,10.9,30.16,22.63,43.51,36,1,1,1.56.59,2.35-.19a340.46,340.46,0,0,1,62.51-48.33A158.1,158.1,0,0,1,418.84,2,131,131,0,0,1,448.76.2C454.85.5,460.92.82,467,1.48c17,1.83,33.49,5.64,49.22,12.38,28.57,12.24,50.64,31.76,65.65,59.08,8.24,15,13.25,31.12,16.1,47.94A204.24,204.24,0,0,1,600.81,155.3Zm-43.27,0a161.12,161.12,0,0,0-.89-16.74,127.33,127.33,0,0,0-9-36.56c-4.4-10.65-10.11-20.46-18.4-28.6A91.92,91.92,0,0,0,503,55.53a120.52,120.52,0,0,0-34.13-10.26c-7.42-1-14.87-1.53-22.35-1.88a89.45,89.45,0,0,0-25.95,2.47c-12.93,3.23-24.9,8.79-36.44,15.34-11.14,6.33-21.2,14.17-31.09,22.25-13,10.61-25.42,21.84-36.19,34.71-7.76,9.27-25,9.91-33-.14-2.38-3-5-5.75-7.69-8.5a358.93,358.93,0,0,0-37.5-33.32,176.23,176.23,0,0,0-46.19-26.49,90.78,90.78,0,0,0-33.56-6.43c-7.53.09-15,.59-22.55,1.41A122.71,122.71,0,0,0,96.92,55.92C84.5,61.79,73.61,69.66,65.15,80.59,57.06,91,52,103,48.4,115.6c-4.13,14.62-5.5,29.59-5.1,44.74A105.62,105.62,0,0,0,46.45,183c4.27,17.26,12.08,32.91,21.76,47.7a275.36,275.36,0,0,0,33,40.56c8.52,8.8,17.53,17.1,26.34,25.6q21.47,20.71,43,41.41l43,41.41,51.66,49.8q17,16.4,34,32.83c1.07,1,1.61.86,2.57-.07,7.48-7.27,15-14.49,22.54-21.73l51.89-50,33.37-32.15L455,314.42q10.65-10.27,21.31-20.55c13.23-12.7,26.58-25.27,38.35-39.39,12.73-15.26,24-31.44,32.08-49.7C553.7,189.16,557.81,172.91,557.55,155.3Z"/></svg>