<svg id="Layer_1" data-name="Layer 1" xmlns="http://www.w3.org/2000/svg" viewBox="0 0 612 720"><title>sell-black</title><path d="M452,1h20c7.89,2.31,15.41,5.35,21.6,11,1.74,1.6,4,1.53,6.15,1.5,7-.11,14,.29,20.76,2.32C527.68,18,528,19,523.13,24.46,510.92,38.13,499,52,488.77,67.29c-9.49,14.15-17.86,28.9-23.65,45-4.19,11.62-1.35,16.67,10.78,19.32,5.2,1.13,10.45,2.1,15.63,3.3,11.58,2.69,21.91,7.61,30.31,16.37,8.69,9.06,10.76,19.14,5.9,30.72-2.32,5.52-4.73,11-6.57,16.72-2,6-1.77,12.11,1.69,17.81,11.72,19.3,6.85,42.23-11.64,55.26-1.9,1.34-3.68,2.85-5.47,4.35-2.58,2.16-3.33,4.68-2,8,3.24,8.32,1,15.73-4.44,22.33-3.27,4-6.88,7.69-10.31,11.55-7.12,8-11.38,17.07-10.92,28.11.16,3.8,1.29,6.5,4.37,8.89a424.55,424.55,0,0,1,58.49,55.06c29.9,34.09,53.21,71.95,65.87,115.86,4,13.8,6.17,27.92,8.22,42.08v36c-2.24,9-4.68,18-8.93,26.4-11,21.67-28.12,37.36-48.64,49.57C524,699.88,487.16,709.65,449,715.35c-15.29,2.28-30.66,3.87-46,5.65H354a34.08,34.08,0,0,0-3.42-.64c-63-5.5-109.7-37.4-142.71-90.07-18.29-29.18-25.13-61.46-20.13-95.81,3.31-22.73,12.23-43.53,22.91-63.63a188.29,188.29,0,0,1,24.17-35.45c2.49-2.86,1.55-3.75-1.63-4.42a32.71,32.71,0,0,0-11.42-.26c-3.3.45-6.58,1-9.89,1.42-8.08,1-8.95,1.71-10.72,9.64-1.44,6.44-1.11,13-.42,19.4.45,4.23-1.14,6.3-5,7.09-1.79.37-3.57.85-5.38,1.06-6.11.73-12.27,1.18-18.35,2.1-8.41,1.27-9.76,3-9.68,11.37.09,9,1.64,17.92,1,26.95-.3,4.33-1.85,6.48-6.66,6.71-10,.49-19.9,1.72-29.86,2.5-14.44,1.13-28.89,2.42-43.4,2-6.5-.2-6.72-.56-6.74-7-.11-33.33-1-66.62-4.89-99.77-3.6-30.72-9.39-61-20.95-89.76C35.6,286.51,16.49,250.39-2,214v-6a24.18,24.18,0,0,1,14.32-5.18c23.12-1.24,46.26-1.86,69.41-2.25,26.8-.45,53.67-.69,80.29-4.1,9.61-1.23,18.62-4.29,25.11-13.32,18.38-25.56,37.66-50.47,56.35-75.81,5.77-7.82,13.51-11,22.7-11.63,4-.26,8-.08,12-.09,7.33,0,14.67.26,22-.09s9.92-4.65,7.7-11.61a31.35,31.35,0,0,0-4.74-8.75c-9.45-13.11-18.93-26.2-28.27-39.39-5.33-7.52-3.53-13.62,5-17,3.85-1.54,8-2.26,11.86-3.85,10.65-4.45,19.81-1.73,28.33,5.21,4.39,3.57,8.77,7.21,13.47,10.33,6.18,4.1,11.85,3.3,17.22-1.82a51.23,51.23,0,0,0,8.82-12.06c4.25-7.45,10.87-10.28,19.3-8.29,5.11,1.21,9.56,3.81,14,6.49s9,5.86,14.22,7.2c4.29,1.11,9.31,2.82,12.66-1.26C428.25,10.29,439.35,4.47,452,1ZM323.89,119.35c-18.33,0-36.65.07-55-.06a10.1,10.1,0,0,0-8.56,3.89c-21.94,25.58-41.58,52.88-61,80.39A32.69,32.69,0,0,0,193.25,223q-.95,66.23,3.19,132.32c.83,13.12,2,26.22,3.05,39.31.54,6.53,1.13,7,7.54,7.12,15.15.33,30.34.12,45.44,1.22,8.88.65,14.8-2.1,20.58-8.77,16.36-18.91,33.12-37.43,45.49-59.38a11.87,11.87,0,0,0,1.53-7.56c-1.44-13.76-2.21-27.53-.57-41.36,1.3-10.91,4.26-21.94-1.57-32.54a7.08,7.08,0,0,1-.29-2c-2.14-11-.06-21.91,1.7-32.73.89-5.49.44-11.43,4.1-16.23,5.86-7.68,11.67-15.4,17.66-23a62.59,62.59,0,0,1,17.61-15.32c5.5-3.23,10.08-3.17,14.81,1.3,6.9,6.52,14,12.82,21.07,19.15,8.84,7.92,18.69,13.37,31.1,12.27,7.44-.66,10.27-5.13,7.48-11.9-.89-2.15-1.81-4.3-2.82-6.4C420.9,159,408,141.54,396.8,123c-1.43-2.36-3.55-2.58-6-2.75C368.53,118.66,346.2,119.2,323.89,119.35Zm39,142.27c17.09-1.15,37.33-2.57,57.58-3.85,23.4-1.47,46.82-2.72,70.22-4.23,13.87-.9,21.81-14.69,15.87-27.26-3.67-7.76-10.53-10.6-18.42-12-12-2.09-23.88.18-35.8.93-23.07,1.44-46.16,2.6-69.22,4.14-12.18.82-24.07,3.25-35.25,8.42-6.17,2.85-9.32,7.91-9.73,14.56C337.41,254.4,346,262,362.91,261.63Zm8.33,53.29v-1.28c11.31,0,22.63.24,33.93-.05,19.13-.49,38.25-1.3,57.38-2a23.09,23.09,0,0,0,8.21-2,18.41,18.41,0,0,0,10.88-18.07c-.45-6.06-5.08-10.28-13.28-12.27a29.75,29.75,0,0,0-8.91-.83c-33.54,2.07-67,5.08-100.68,5-9.49,0-15.3,5.88-15.56,15.2-.27,9.58,5.34,15.74,15,16.24C362.57,315.1,366.91,314.91,371.24,314.91ZM180.63,404.62c.65-15-.68-31.82-1.23-48.63-.86-26.12-2.53-52.22-3.72-78.33-.71-15.62-.67-31.29-3.07-46.8-1-6.42-3.24-8.1-10.86-7.48-4.77.39-5.79,1.91-5.65,8.5.42,19.15.55,38.32,1.41,57.45.54,12,.47,24,1,36,1.52,33.76,2.36,67.56,4.73,101.28.65,9.32.69,9.67,10.22,9.17.5,0,1-.08,1.5-.07,4.26.06,5.84-2,5.73-6.25C180.48,421.77,180.63,414.1,180.63,404.62Zm235-67.39c-17.66-.35-35.18,2.24-52.83,2.35a23.16,23.16,0,0,0-14,4.68c-6,4.6-8.37,11.76-5.88,18.14,2,5.13,8.28,8.48,15.3,8.14,20.43-1,40.88-1.7,61.28-3.1,8.28-.57,16.65,0,24.86-1.73,6.39-1.31,9.37-5.24,9.48-12.64.12-7.78-3.05-12.45-9.42-13.82C434.93,337.23,425.28,337.09,415.63,337.23Zm71.08-147.49a40.41,40.41,0,0,0,17.15-2.53c2.51-1,4.58-2.56,4.56-5.35-.12-12-1.87-20.45-14.2-23.52-14.27-3.56-28.44-1.3-42.65-.19-3.22.25-3.07,2.28-2.32,4.68a59.15,59.15,0,0,0,13,22.24,7.47,7.47,0,0,0,4.7,2.57C473.49,188.48,480,190,486.71,189.74Z"/></svg>